<?xml version="1.0" encoding="UTF-8" standalone="no"?>
<svg
   xmlns:dc="http://purl.org/dc/elements/1.1/"
   xmlns:cc="http://creativecommons.org/ns#"
   xmlns:rdf="http://www.w3.org/1999/02/22-rdf-syntax-ns#"
   xmlns:svg="http://www.w3.org/2000/svg"
   xmlns="http://www.w3.org/2000/svg"
   xmlns:sodipodi="http://sodipodi.sourceforge.net/DTD/sodipodi-0.dtd"
   xmlns:inkscape="http://www.inkscape.org/namespaces/inkscape"
   width="1103pt"
   height="907pt"
   viewBox="0 0 1103 907"
   version="1.1"
   id="svg3336"
   inkscape:version="0.91 r13725"
   sodipodi:docname="Untitled.svg"
   inkscape:export-filename="D:\Users\Terry\Downloads\Untitled2.png"
   inkscape:export-xdpi="90"
   inkscape:export-ydpi="90">
  <metadata
     id="metadata4572">
    <rdf:RDF>
      <cc:Work
         rdf:about="">
        <dc:format>image/svg+xml</dc:format>
        <dc:type
           rdf:resource="http://purl.org/dc/dcmitype/StillImage" />
      </cc:Work>
    </rdf:RDF>
  </metadata>
  <defs
     id="defs4570" />
  <sodipodi:namedview
     pagecolor="#ffffff"
     bordercolor="#666666"
     borderopacity="1"
     objecttolerance="10"
     gridtolerance="10"
     guidetolerance="10"
     inkscape:pageopacity="0"
     inkscape:pageshadow="2"
     inkscape:window-width="1600"
     inkscape:window-height="847"
     id="namedview4568"
     showgrid="false"
     inkscape:zoom="0.53512469"
     inkscape:cx="782.0793"
     inkscape:cy="600.01238"
     inkscape:window-x="182"
     inkscape:window-y="1072"
     inkscape:window-maximized="1"
     inkscape:current-layer="svg3336" />
  <path
     style="fill:#a3a100;fill-opacity:1"
     d="m 1268.1543,33.884766 c -16.3335,0.279931 -30.9605,12.416015 -40.7168,24.666015 -18.9125,24.625 -19.1004,57.124999 -23.6504,86.499999 -6.675,47.8625 -13.4879,95.77461 -20.0879,143.59961 11.0875,-0.75 23.6254,2.02539 34.1504,-0.84961 3.7,-8.6125 2.3629,-19.32617 4.8379,-28.76367 2.175,-4.9375 -0.7,-17.16289 9.5625,-12.71289 6.0625,9.75 7.9875,21.47578 14,31.17578 3.9125,16.025 11.2879,31.04922 18.9629,45.57422 4.325,6.9 10.1617,12.6125 14.8867,19.1875 7.75,5.675 16.45,11.61406 26.4375,11.35156 6.0125,0.2375 11.9629,0.24922 18.0254,0.44922 6.225,-3.5 13.3375,-5.63711 18.125,-11.34961 8.575,-10.575 11.3879,-25.01328 7.7129,-38.05078 1.125,11.425 -1.6996,24.51328 -11.9121,31.05078 -14.6625,11.9125 -37.7512,4.4125 -48.8262,-9.125 -27.9,-32.0625 -33.1746,-76.43789 -53.4121,-112.83789 -2.6125,-2.8375 -4.2754,-8.12578 -8.5879,-8.80078 -1.8125,8.6125 -2.7117,17.42656 -3.8867,26.16406 -1.1875,15.0875 -4.3387,29.98672 -5.0762,45.13672 -7,0.025 -13.9621,0.16211 -20.9121,0.0371 6.2,-48.3875 13.5887,-96.61133 19.8262,-144.98633 3.6,-22.8 5.325,-46.749999 16.5,-67.437499 9.4875,-14.4875 23.5367,-26.51289 41.1367,-29.33789 -2.3937,-0.478125 -4.7624,-0.680616 -7.0957,-0.640615 z m -186.3398,2.626953 c -11.2979,-0.339545 -18.3004,14.105859 -13.8145,24.3125 14.4,38.5625 -7.9871,76.062891 -22.7871,110.587891 -8.6875,17.375 -17.85,34.5875 -27.9375,51.1875 l -2.0508,-0.54883 c -0.5625,-34.15 -0.6238,-68.375 1.7637,-102.4375 -1,-18.475 5.8617,-36.26328 4.1992,-54.73828 -0.575,0.2 -1.7258,0.625391 -2.3008,0.837891 1.95,3.8375 0.7758,8.149218 0.3008,12.199218 -6.625,49.225001 -5.5004,99.000781 -5.3379,148.550781 -0.013,1.5 0.014,3 0.076,4.5 0.3625,3.3 1.0859,9.8875 1.4609,13.1875 23,-36.225 43.4125,-74.31367 59.4375,-114.20117 7.7,-21.7875 16.1375,-45.412111 8.625,-68.537111 -2.975,-7.95 -5.825,-18.223828 2,-24.298828 -1.2527,-0.372656 -2.466,-0.566437 -3.6347,-0.601562 z m 208.916,10.849609 c 0.8634,7.703875 -7.0128,13.920789 -14.3047,12.363281 -7.175,-0.75 -14.1012,-3.186718 -21.3262,-3.449218 -5.7125,1.6125 -8.2496,8.024218 -9.3496,13.324218 -5.975,24.325 -7.7996,49.499611 -10.7871,74.349611 -1,6.275 -1.8129,12.5875 -2.2754,18.9375 12.0125,-13.5875 23.6617,-34.54922 45.0742,-31.88672 -2.8375,-0.7875 -5.6367,-1.57539 -8.3867,-2.40039 -11.375,0.5625 -21.5633,6.0625 -29.4883,14 -0.55,-0.125 -1.6609,-0.36133 -2.2109,-0.48633 -0.225,-17.4625 3.9488,-34.53906 6.4238,-51.726561 1.1125,-6.925 1.9629,-14.398828 5.9004,-20.423828 12.175,-1.625 28.4629,8.923828 37.2754,-3.951172 4.6316,-5.179956 4.5872,-12.17103 3.4551,-18.650391 z m -279.3184,20.324219 c -7.6754,0.09745 -11.3098,9.307422 -16.2246,14.939453 -16.0375,23.975 -27.09922,50.65 -39.94922,76.3125 -8.3125,20.7875 -20.0875,40.03711 -28.0625,60.91211 -1.1625,-0.2625 -2.30039,-0.57422 -3.40039,-0.94922 1.225,7.4875 -0.97617,16.00039 3.11133,22.65039 25.2625,-47.2125 44.9875,-97.11289 70.25,-144.337889 1.275,-2.4125 2.82578,-4.676172 4.23828,-7.013672 4.425,-7.5125 10.125,-14.161328 14.75,-21.548828 -1.7324,-0.6875 -3.2915,-0.982891 -4.7129,-0.964844 z M 952.53711,70.125 c -20.1625,3.1625 -41.06133,5.600781 -60.04883,13.425781 -34.175,15.4125 -51.07656,56.223829 -45.22656,92.048829 3.5,6.6125 6.88867,15.2 15.95117,15.125 11.225,1.95 18.57461,-12.68633 14.78711,-22.23633 1.55,9.05 -11.24922,12.72383 -15.19922,4.86133 -10.6875,-32.25 6.17461,-71.92461 36.16211,-87.59961 14.875,-7.1125 31.47383,-8.6125 47.42383,-11.9375 -17.25,35.6625 -28.08711,75.36211 -24.22461,115.22461 -0.5375,-36.8875 8.46211,-73.825 25.09961,-106.687501 -0.3625,-2.0875 0.50156,-4.075 2.41406,-5.0625 0.85,-2.425 1.96133,-4.749609 2.86133,-7.162109 z m 149.84959,4.613281 c -0.7,3.875 -1.0988,7.8125 -2.1113,11.625 -4.7375,28.212499 -16.3,54.549219 -29.1875,79.824219 -15.0625,31.4875 -32.1125,62.09961 -50.625,91.66211 -2.3875,4.675 -5.1883,9.13711 -8.0508,13.53711 -2.3625,3.65 -5.1492,7.025 -7.3242,10.8125 -2.7,4.0375 -5.15001,8.36406 -8.68751,11.72656 -3.5375,-22.3 -0.0621,-45.87617 -1.66211,-68.63867 -1.6625,-23.025 -1.58906,-46.31289 -0.0391,-69.33789 0.15,-11.2625 1.50117,-22.475 1.38867,-33.75 -8.3625,12.825 -13.675,27.46406 -19.8125,41.47656 -14.8125,31.1375 -29.07539,62.58711 -45.77539,92.78711 -4.8,10.0875 -11.71328,19.15 -15.55078,29.6875 -1.15,0.5 -2.325,0.96133 -3.5,1.36133 -4.875,-30.9375 -6.43711,-62.24844 -9.41211,-93.39844 -1.35,-13.0875 -1.29922,-26.35156 0.17578,-39.41406 0.0625,-2.025 0.20039,-6.07461 0.27539,-8.09961 1.7125,-20 9.44844,-38.62461 17.64844,-56.66211 -27.625,3.525 -51.79922,30.79922 -48.19922,59.13672 1.5625,-17.425 11.88672,-34.72344 28.19922,-41.71094 -4.0125,13.6875 -10.26094,27.12344 -9.83594,41.71094 -5.3625,46.5875 2.67422,93.18828 5.94922,139.61328 1.525,7.75 9.50039,8.55 16.15039,8.9375 1.575,-1.9625 2.92422,-4.10039 4.19922,-6.27539 C 937.88711,253.93711 957.25,215.35 974.625,176 c 1.575,-1.4375 3.02578,-3.22422 5.23828,-3.69922 1.1375,24.6625 -1.53828,49.52422 1.32422,74.07422 l 0.13672,1 c -0.025,6.1875 0.05,12.38789 -0.1875,18.58789 0.575,10.9375 -1.04922,22.42383 1.05078,33.04883 5.2625,1.4375 11.44922,7.2125 16.32422,2 3.61248,-4.0875 6.38788,-8.8 9.33788,-13.375 30.6125,-47.1125 57.2633,-96.84883 80.4258,-148.04883 6.9125,-21.025 15.0738,-42.324609 14.1113,-64.849609 z m 39.1543,56.267579 c -17.5974,0.46616 -32.8668,13.39766 -42.6543,27.59375 -12.45,18.55 -19.0242,40.31211 -21.6367,62.34961 -1.15,12.95 -2.8621,26.67656 1.2754,39.28906 3.8375,18.4125 18.6,35.71211 38.6875,35.16211 4.4,-0.1375 8.9992,-0.53867 13.0742,-2.45117 16.9375,-6.3625 28.7379,-21.36172 37.3379,-36.63672 12.125,-22.0625 17.7375,-47.79961 15.25,-72.84961 -0.3625,24.7875 -6.1879,49.97383 -20.0254,70.79883 -5.7375,8.6 -12.9125,16.40039 -21.4375,22.27539 -2.9375,1.8625 -6.0879,3.33789 -9.2129,4.83789 -14.9625,4.3 -32.3113,-3.83789 -37.1113,-18.90039 -11.025,-30.5875 -4.1629,-64.7625 8.9121,-93.625 8.675,-18.8 25.1746,-37.2625 47.5371,-36.75 -3.3984,-0.83984 -6.7373,-1.18008 -9.9961,-1.09375 z M 1140,146.12305 c -7.3645,0.14714 -12.6102,8.21406 -16.4492,13.72656 -10.8,19.4875 -11.7129,42.4375 -10.8379,64.1875 0.275,-2.67969 0.5019,-5.40615 0.7207,-8.16016 0.3189,-4.01453 0.6219,-8.08564 1.0234,-12.14843 0.012,-0.11783 0.021,-0.23571 0.033,-0.35352 10e-5,-6.4e-4 0,-0.001 0,-0.002 0.1397,-1.39274 0.2919,-2.78417 0.461,-4.17188 10e-5,-6.4e-4 -10e-5,-0.001 0,-0.002 0.1692,-1.38834 0.3561,-2.77234 0.5644,-4.15039 0.5211,-3.44573 1.1791,-6.84988 2.0508,-10.17383 0.1743,-0.66468 0.3569,-1.32458 0.5488,-1.98242 0.5761,-1.97409 1.2335,-3.91571 1.9903,-5.81641 0.2521,-0.63339 0.5144,-1.26083 0.789,-1.88476 0.5495,-1.24837 1.1443,-2.47705 1.791,-3.6836 0.6462,-1.20559 1.3447,-2.38828 2.0977,-3.54687 3e-4,-4.5e-4 -3e-4,-0.002 0,-0.002 1.1297,-1.73814 2.3859,-3.41949 3.7832,-5.0371 3e-4,-3.7e-4 -3e-4,-0.002 0,-0.002 0.4659,-0.53932 0.9473,-1.07109 1.4453,-1.5957 0.6121,-0.38721 1.266,-0.78883 1.9356,-1.12695 5e-4,-2.8e-4 0,2.7e-4 0,0 0.6698,-0.33791 1.357,-0.61378 2.0371,-0.74805 0.3403,-0.0672 0.6778,-0.0987 1.0117,-0.0859 0.5011,0.0192 0.9926,0.13905 1.4629,0.39258 0.4702,0.25353 0.9203,0.64023 1.3399,1.19336 0.9,1.29375 1.6695,2.6516 2.3379,4.05664 0.6683,1.40504 1.2348,2.85776 1.7285,4.3418 0.3291,0.98935 0.6258,1.9914 0.8984,3.0039 2e-4,6.1e-4 -10e-5,0.001 0,0.002 0.5451,2.02441 0.9955,4.08694 1.416,6.14648 0.4207,2.06016 0.8129,4.11797 1.2442,6.13672 0.037,6.7875 0.059,13.55439 0.029,20.32031 -0.03,6.76563 -0.1106,13.53086 -0.2793,20.31836 -0.4711,2.78203 -0.9737,5.62259 -1.5586,8.46875 -0.3899,1.89744 -0.8164,3.79611 -1.2949,5.68359 -0.7178,2.83123 -1.5521,5.63512 -2.5547,8.35743 -0.6684,1.81484 -1.4112,3.59233 -2.2442,5.32031 -2e-4,5.3e-4 3e-4,0.001 0,0.002 -0.8327,1.7275 -1.7574,3.40374 -2.7851,5.01367 -3e-4,4.7e-4 3e-4,0.001 0,0.002 -0.5138,0.8047 -1.0549,1.59176 -1.6231,2.36133 -3e-4,4.3e-4 4e-4,0.002 0,0.002 -1.7052,2.30953 -3.664,4.45308 -5.9277,6.37695 0.3375,0.2625 0.9875,0.78633 1.3125,1.04883 11.125,1.1 18.1883,-8.97383 21.8633,-17.98633 10.2,-24.9375 11.2859,-53.17578 6.6484,-79.48828 -2.3375,-8.7875 -4.5621,-19.83828 -13.7246,-23.86328 -1.1406,-0.33281 -2.235,-0.47219 -3.2871,-0.45117 z m 129.4853,1.39143 c 8.3423,7.93032 -16.7119,9.9741 -17.3525,10.09985 -13.5,7.575 -12.3574,9.99817 -20.7949,22.44817 -2.9875,3.925 -14.9866,23.334 -5.2424,17.43571 21.5694,-13.05628 28.8975,-28.56854 42.4618,-34.49 0.75,-7.03125 9.5836,-15.52875 0.928,-15.49373 z m 22.2647,9.5988 c -2.2125,26.4125 -27.3,45.51133 -53.1875,44.42383 3,4.55 8.525,6.93711 12.3125,10.91211 23.55,-7.325 44.5875,-29.34844 40.875,-55.33594 z m 43.4121,136.22656 c -8.9807,-0.14437 -17.0543,8.4918 -15.1875,17.91016 0.5375,6.1125 5.875,15.38672 -2.6875,18.19922 6.075,1.375 14.2625,0.0633 17.8125,-5.63672 3.5625,-9.425 -8.1746,-24.275 5.0879,-29.4375 -1.668,-0.67969 -3.3623,-1.00842 -5.0254,-1.03516 z"
     transform="scale(0.8,0.8)"
     id="path3372"
     inkscape:connector-curvature="0"
     sodipodi:nodetypes="scccccccccccccccccccccccscccccccccccccccscsccccccccccccsccccccccscccccccccccccsccccccccccccccccccccccccccccccccssccccccccccccsscccccccccccccsccccccccsccccccccscccscccccccccccssccccsccccscsccscs" />
  <path
     style="fill:#d12313;fill-opacity:1"
     d="M 1275.25 34.525391 C 1257.65 37.350391 1243.6008 49.375781 1234.1133 63.863281 C 1222.9383 84.550781 1221.2133 108.50078 1217.6133 131.30078 C 1211.3758 179.67578 1203.9871 227.89961 1197.7871 276.28711 C 1204.7371 276.41211 1211.6992 276.275 1218.6992 276.25 C 1219.4367 261.1 1222.5879 246.20078 1223.7754 231.11328 C 1224.9504 222.37578 1225.8496 213.56172 1227.6621 204.94922 C 1231.9746 205.62422 1233.6375 210.9125 1236.25 213.75 C 1256.4875 250.15 1261.7621 294.52539 1289.6621 326.58789 C 1300.7371 340.12539 1323.8258 347.62539 1338.4883 335.71289 C 1348.7008 329.17539 1351.5254 316.08711 1350.4004 304.66211 C 1348.5004 300.01211 1346.1875 294.0375 1340.1875 294.375 C 1326.925 299.5375 1338.6621 314.3875 1335.0996 323.8125 C 1331.5496 329.5125 1323.3621 330.82422 1317.2871 329.44922 C 1311.3996 326.86172 1305.6242 323.56211 1301.6367 318.41211 C 1290.2867 301.41211 1284.1879 281.75078 1277.0254 262.80078 C 1269.6004 245.47578 1264.075 226.51172 1250.875 212.44922 C 1247.0875 208.47422 1241.5625 206.08711 1238.5625 201.53711 C 1264.45 202.62461 1289.5375 183.52578 1291.75 157.11328 C 1290.675 147.71328 1288.4117 134.1375 1277.7617 131 C 1256.3492 128.3375 1244.7 149.29922 1232.6875 162.88672 C 1233.15 156.53672 1233.9629 150.22422 1234.9629 143.94922 C 1237.9504 119.09922 1239.775 93.924609 1245.75 69.599609 C 1246.85 64.299609 1249.3871 57.887891 1255.0996 56.275391 C 1262.3246 56.537891 1269.2508 58.974609 1276.4258 59.724609 C 1284.1508 61.374609 1292.5383 54.299609 1290.4883 45.974609 C 1288.2008 39.412109 1282.1875 34.825391 1275.25 34.525391 z M 1085.4492 37.113281 C 1077.6242 43.188281 1080.4742 53.462109 1083.4492 61.412109 C 1090.9617 84.537109 1082.5242 108.16172 1074.8242 129.94922 C 1058.7992 169.83672 1038.3867 207.92539 1015.3867 244.15039 C 1015.0117 240.85039 1014.2883 234.26289 1013.9258 230.96289 C 1013.8633 229.46289 1013.8371 227.96289 1013.8496 226.46289 C 1013.6871 176.91289 1012.5625 127.13711 1019.1875 77.912109 C 1019.6625 73.862109 1020.8367 69.550391 1018.8867 65.712891 C 1017.9117 66.650391 1016.9875 67.637891 1016.125 68.650391 C 1011.5 76.037891 1005.8 82.686719 1001.375 90.199219 C 999.9625 92.536719 998.41172 94.800391 997.13672 97.212891 C 971.87422 144.43789 952.14922 194.33828 926.88672 241.55078 C 922.79922 234.90078 925.00039 226.38789 923.77539 218.90039 C 923.66289 208.92539 922.98711 198.97461 922.16211 189.03711 C 918.29961 149.17461 929.13672 109.475 946.38672 73.8125 C 930.43672 77.1375 913.83789 78.6375 898.96289 85.75 C 868.97539 101.425 852.11328 141.09961 862.80078 173.34961 C 866.75078 181.21211 879.55 177.53828 878 168.48828 C 877 161.71328 873.0875 155.81172 871.9375 149.07422 C 868.3375 120.73672 892.51172 93.4625 920.13672 89.9375 C 911.93672 107.975 904.20078 126.59961 902.48828 146.59961 C 902.41328 148.62461 902.27539 152.67422 902.21289 154.69922 C 900.73789 167.76172 900.68711 181.02578 902.03711 194.11328 C 905.01211 225.26328 906.57422 256.57422 911.44922 287.51172 C 912.62422 287.11172 913.79922 286.65039 914.94922 286.15039 C 918.78672 275.61289 925.7 266.55039 930.5 256.46289 C 947.2 226.26289 961.46289 194.81328 976.27539 163.67578 C 982.41289 149.66328 987.72539 135.02422 996.08789 122.19922 C 996.20039 133.47422 994.84922 144.68672 994.69922 155.94922 C 993.14922 178.97422 993.07578 202.26211 994.73828 225.28711 C 996.33828 248.04961 992.86289 271.62578 996.40039 293.92578 C 999.93789 290.56328 1002.3879 286.23672 1005.0879 282.19922 C 1007.2629 278.41172 1010.0496 275.03672 1012.4121 271.38672 C 1015.2746 266.98672 1018.0754 262.52461 1020.4629 257.84961 C 1038.9754 228.28711 1056.0254 197.675 1071.0879 166.1875 C 1083.9754 140.9125 1095.5379 114.57578 1100.2754 86.363281 C 1101.2879 82.550781 1101.6867 78.613281 1102.3867 74.738281 C 1102.5992 61.800781 1103.1242 38.038281 1085.4492 37.113281 z M 1151.5371 132.09961 C 1129.1746 131.58711 1112.675 150.04961 1104 168.84961 C 1090.925 197.71211 1084.0629 231.88711 1095.0879 262.47461 C 1099.8879 277.53711 1117.2367 285.675 1132.1992 281.375 C 1135.3242 279.875 1138.4746 278.39961 1141.4121 276.53711 C 1149.9371 270.66211 1157.1121 262.86172 1162.8496 254.26172 C 1176.6871 233.43672 1182.5125 208.25039 1182.875 183.46289 C 1181.1 164.17539 1175.9633 140.57539 1155.8633 132.52539 C 1154.4133 132.38789 1152.9621 132.24961 1151.5371 132.09961 z M 1140 146.12109 C 1141.052 146.10006 1142.1465 146.24141 1143.2871 146.57422 C 1152.4496 150.59922 1154.6742 161.65 1157.0117 170.4375 C 1161.6492 196.75 1160.5633 224.98828 1150.3633 249.92578 C 1146.6883 258.93828 1139.625 269.01211 1128.5 267.91211 C 1128.175 267.64961 1127.525 267.12578 1127.1875 266.86328 C 1113.6375 257.72578 1112.5004 239.03711 1112.7129 224.03711 C 1111.8379 202.28711 1112.7508 179.33711 1123.5508 159.84961 C 1127.3898 154.33711 1132.6357 146.26831 1140 146.12109 z M 1257.377 161.28906 C 1262.642 161.57178 1258.9688 171.26953 1259.625 174.5625 C 1254.9625 186.125 1241.8254 192.09922 1229.9629 192.51172 C 1235.6504 181.37422 1244.9117 167.87578 1256.1992 161.36328 C 1256.6336 161.29375 1257.026 161.27021 1257.377 161.28906 z "
     id="path3374"
     transform="scale(0.8,0.8)" />
  <path
     d="m 818.6875,39.949219 c -23.8,0.7375 -46.2,16.875781 -55,38.863281 -8.8875,16.275 -10.69922,35.06328 -14.38672,52.92578 -6.6,39.075 -11.93828,78.32461 -18.80078,117.34961 0.25,1.625 1.18828,3.5125 -0.26172,4.875 -6.8875,8.7125 -13.26367,18.17383 -22.20117,24.92383 -6.575,6.2 -17.86289,12.36289 -25.96289,6.46289 -2.2375,-9.5 1.51289,-19.67422 2.83789,-29.32422 -10.6375,10.35 -19.8,24.33711 -33.9375,31.09961 -6.9625,3.325 -16.63711,-0.14922 -19.34961,-7.51172 -8.4125,-19.9375 -4.14922,-42.01289 0.80078,-62.21289 8.425,-26.8125 22.29844,-52.8125 45.39844,-69.8125 10.3125,-5.025 21.50039,-5.60117 32.77539,-5.51367 1.9125,-5.25 6.37578,-8.175 11.92578,-8.3125 -5.35,34.6375 -14.20039,68.8 -17.52539,103.75 -0.45,5.7375 -0.93789,11.47578 -1.77539,17.17578 -0.425,2.1375 -0.83789,4.28789 -0.83789,6.46289 1.35,1.3875 2.67617,3.525 4.95117,2.5625 8.475,-3.7 12.57383,-12.90117 19.98633,-17.88867 -2.5,-1.875 -4.23711,-6.87422 -7.97461,-5.44922 -1.7875,3.2 -3.725,6.36328 -6.6875,8.61328 -8,3.9 -6.51289,-6.02539 -6.40039,-11.33789 5.4625,-36.05 13.97617,-71.62539 18.76367,-107.71289 -8.525,1.75 -20.725,1.76211 -24.5625,10.84961 -9.5375,-0.025 -19.47461,0.53828 -28.03711,5.17578 -24.125,11.9875 -37.78867,37.26133 -48.07617,61.04883 -5.625,10.3375 -5.21211,22.73828 -10.41211,33.05078 9,8.3625 -4.24961,14.96211 -9.34961,21.03711 -7.8875,7.75 -15.37578,16.06289 -24.55078,22.33789 -6.7625,5.5375 -19.65039,8.93789 -23.27539,-1.47461 -5.6375,-39.2875 9.4125,-77.82461 13.125,-116.72461 -7.475,-3.8125 -22.79961,4.0875 -18.91211,-10 2.4875,-8.7375 14.85,-1.67539 21.1875,-4.21289 3.3,-11.65 3.93828,-23.89961 7.05078,-35.59961 5.45,-6.0125 13.73633,-8.77578 21.17383,-11.48828 -3.3375,15.5625 -6.22422,31.37461 -7.88672,47.22461 7.925,3.2375 29.96211,-7.56133 24.91211,8.57617 -3.875,9.45 -19.19883,1.075 -27.11133,4.1875 -1.2875,4.4 -2.22656,8.89922 -2.78906,13.44922 -3.2875,25.125 -9.86172,49.83828 -11.38672,75.17578 l 1.17578,-0.0762 c 3.75,-25 8.09883,-50.00039 13.04883,-74.77539 8.6,-1.0375 17.88789,1.21289 26.21289,-1.09961 1.5375,-1.6 0.82461,-4.24883 1.28711,-6.29883 0.5125,-6.275 1.28711,-12.51367 1.97461,-18.76367 C 612.68672,147.84961 603.1375,151.05 595,149.875 c 0.175,-6.8375 2.10078,-13.48828 3.30078,-20.17578 1.3625,-10.7625 4.525,-21.4 4.125,-32.312501 -1.3,0.05 -2.55,0.314062 -3.75,0.789062 -10.4625,5.899999 -21.42617,11.249609 -31.45117,17.787109 -3.4125,10.8375 -3.98711,22.65 -6.28711,33.875 -6.425,1.075 -13.96289,-1.36328 -19.96289,1.01172 -1.4375,2.725 -1.76289,5.8875 -2.40039,8.875 -1.1,5.825 -2.19883,11.71211 -2.36133,17.66211 4.6875,0.0625 14.0625,0.17578 18.75,0.23828 -0.6,7.15 -1.87461,14.22461 -2.22461,21.41211 -1.35,5.725 -2.22539,11.55117 -3.65039,17.26367 -2.3625,25.65 -13.86211,52.42344 -2.91211,77.52344 8.125,13.725 27.62461,6.53867 36.84961,-2.11133 9.55,-8.2375 18.67383,-16.96211 27.29883,-26.16211 1.075,-0.5875 2.17656,-1.15078 3.28906,-1.67578 0.55,14.1625 4.81094,32.32578 20.27344,37.30078 13.6125,2.6 23.58789,-7.5125 33.33789,-14.9375 1.35,5.2375 3.10117,10.69844 7.82617,13.89844 20.4375,4.125 37.31094,-12.89922 48.33594,-27.94922 1.9625,-2.725 9.06367,-10.8375 5.26367,1.5 -0.975,9.7125 2.0125,21.78789 11.8125,25.96289 10,1.9625 20.23672,-2.57617 27.32422,-9.45117 7.525,-6.2375 14.61328,-12.94961 20.17578,-21.03711 4.1875,-6.5375 14.91211,-14.27383 8.72461,-22.98633 -7.4375,14.4 -18.96328,26.58633 -31.86328,36.29883 -5.925,5.2125 -17.47422,8.18867 -20.94922,-1.29883 -5.1875,-12.575 -0.91289,-26.35117 0.34961,-39.26367 7.9125,-51.0625 14.43867,-102.43789 26.07617,-152.837891 6.975,-22.6625 24.46211,-43.81211 48.84961,-47.91211 z M 613.9375,240.0625 c -2.85,-1.575 -4.02578,-6.25078 -7.55078,-6.05078 -8.8375,10.1125 -18.07461,19.81328 -28.16211,28.67578 15.3,3.125 22.86289,-17.8125 35.71289,-22.625 z M 836.25,57.287109 c -5.275,15.55 -24.44961,6.05 -36.22461,6.4375 -6.525,0.0625 -8.0125,7.563282 -9.875,12.550782 -11.4125,59.999999 -19.00117,120.661329 -28.13867,181.048829 -0.0344,0.47187 0.0254,0.93242 0.16016,1.33203 -0.13492,-0.39976 -0.19454,-0.86016 -0.16016,-1.33203 -0.4375,2.9 -2.73672,10.85078 2.86328,10.17578 10.6125,-7.1 19.79961,-16.77539 26.66211,-27.58789 -1.60664,-2.90039 -3.14916,-4.08837 -4.63672,-4.17188 -3.80153,-0.21341 -7.24492,6.79063 -10.48828,10.89649 -4.6375,3.55 -7.19883,8.90156 -11.48633,12.72656 -3.3375,-7.5 2.39844,-15.6125 2.21094,-23.375 7.1625,-50.8625 13.98906,-101.90117 23.91406,-152.263671 -1.2375,-8.525 6.68711,-5.925 11.72461,-6.5 9.9,1.325 21.63633,4.563672 29.48633,-3.673828 4.6,-3.975 3.15078,-10.913672 3.98828,-16.263672 z m -514.67578,8.472657 c -10.58126,-0.139489 -20.66602,12.253515 -19.875,23.728515 -2.225,13.712499 11.71367,27.987499 25.63867,20.374999 5.8125,-5.8625 14.24922,-15.41328 9.88672,-23.92578 -1.65,5.2625 -4.81133,10.225781 -9.86133,12.800781 -18.825,3.062499 -16.06328,-30.86289 0.0742,-31.52539 -1.92773,-0.970703 -3.90379,-1.427294 -5.86328,-1.453125 z M 118.91016,76.210938 c -26.986839,0.581348 -51.505753,19.179866 -65.234379,41.951172 -13.0625,20.6 -20.513281,43.9625 -25.113281,67.8125 -3.5,16.4625 -2.137891,33.27539 -1.212891,49.90039 0.8125,2.3125 1.625782,4.625 2.425782,6.9375 1.4375,6.925 3.6875,13.67422 7.4375,19.69922 8.5,25.2125 36.536328,41.42578 62.736328,38.86328 1.625001,-0.2125 3.250391,-0.25 4.900391,-0.125 9.4375,-1.5875 18.07617,-5.78711 26.63867,-9.84961 21.1875,-13.8625 35.69844,-35.82617 44.46094,-59.26367 5.6,-11.875 6.32539,-26.72422 12.65039,-37.44922 6.1625,9.6625 9.95078,-8.9375 16.42578,-9.8125 -4.1375,37.825 -14.87461,74.74922 -18.78711,112.51172 11.15,0.375 22.33633,0.23867 33.48633,-0.0488 1.15,-2.2625 1.47539,-4.79961 1.65039,-7.28711 l 1.08789,-0.17578 c 6.6375,-36.7625 6.4,-78.06211 31.8125,-108.09961 0.7375,-0.1375 2.21172,-0.42617 2.94922,-0.57617 4.9625,4.775 9.22539,10.21406 14.40039,14.78906 3.7625,1.575 4.87539,-3.17539 6.77539,-5.33789 3.4125,-6.4375 8.48711,-7.18867 4.28711,3.11133 -5.8375,24.2375 -10.92539,48.725 -14.21289,73.4375 -0.625,7.15 -2.44883,14.90156 -0.11133,21.91406 3.25,9.8125 13.92461,14.82422 23.91211,12.01172 13.3,-4.7875 20.87383,-16.85039 30.42383,-26.33789 4.3125,7.7875 5.5125,19.39961 15,23.72461 13.95,8.8125 30.70156,-0.1625 42.35156,-8.75 11.9625,-8.275 20.78633,-20 29.67383,-31.3125 2.75,-3.025 0.97617,-7.72461 -0.54883,-10.97461 -7.6,14.7875 -21.475,25.5 -34.1875,35.875 -7.25,3.7375 -15.25117,6.55078 -23.57617,5.36328 -11.1875,-2.65 -13.82422,-15.71289 -14.69922,-25.46289 -1.525,-28.825 3.76172,-58.61328 16.69922,-84.55078 4,-10.475 10.325,-20.24922 18.75,-27.69922 4.95,-5.9875 12.38789,-8.74961 19.46289,-11.34961 -7.6625,-2.6625 -14.475,2.44961 -21.5625,4.34961 -26.5,20.2625 -38.57539,54.025 -44.58789,85.6875 -0.4625,5.1375 -0.82383,10.31328 -1.92383,15.36328 -7.1125,-6.0875 -10.8,5.92344 -15.125,10.14844 -1.1375,0.375 -2.26406,0.71289 -3.41406,1.02539 2.4125,-12.9875 4.12617,-26.11172 6.95117,-39.01172 4.1625,-23.2 12.81211,-46.37617 11.09961,-70.07617 -5.425,40.375 -18.71328,79.65078 -20.67578,120.48828 5.45,2.45 8.81367,-6.07539 12.70117,-8.65039 3.0375,-3.75 5.82383,-7.68672 8.92383,-11.38672 3.5875,0.2375 7.82617,6.56289 4.57617,9.71289 -7.4125,9.95 -15.95,19.16172 -25.6875,26.88672 -5.9375,7.275 -20.4875,7.06211 -21.5625,-4.33789 0.175,-30.3375 8.0625,-60.04922 13.875,-89.69922 0.75,-9.775 7.32539,-19.42539 3.46289,-29.27539 -10.3375,1.1375 -12.60039,13.9625 -19.96289,19.25 -7.5625,-3.1125 -5.91211,-9.78789 -1.03711,-14.83789 4.6375,-4.45 8.08594,-9.97422 13.02344,-14.13672 7.4125,-5.7875 15.51367,-13.23711 25.82617,-11.53711 -2.65576,-1.13818 -5.33754,-1.64705 -8.01367,-1.70117 -0.38231,-0.008 -0.76451,-0.006 -1.14649,0.004 -6.72283,0.18184 -13.38046,3.07773 -19.46484,5.89648 -1.1375,6.45 -6.16211,10.31172 -11.72461,13.19922 -9.25,3.875 -18.6875,9.05117 -24.1875,17.76367 -23.8875,30.6625 -24.02656,70.975 -30.85156,107.5625 -4.425,6.1625 -14.79883,1.01133 -21.17383,2.61133 7.1625,-40.35 15.16211,-80.65 21.09961,-121.25 0.8375,-2 -0.65,-3.14883 -2.3125,-3.86133 -8.6375,4.6125 -13.65078,13.37539 -20.11328,20.40039 -7.975,-3.8875 -1.71094,-10.47617 1.78906,-15.13867 11.1625,-10.9 22.56211,-25.69883 39.78711,-25.48633 -17.45,-6.5 -33.75078,8.59883 -45.30078,19.98633 -2.1583,3.30804 -6.34694,7.82432 -7.18359,3.57422 -0.23122,10.03679 -1.34598,20.03065 -2.99024,29.93945 -5.1,22.475 -13.55039,44.46172 -27.27539,63.13672 -6.5,9.525 -14.96289,17.7375 -24.90039,23.625 -2.93148,1.6822 -5.97323,3.16725 -9.00391,4.67578 -0.10494,0.0464 -0.20414,0.0872 -0.30859,0.13281 -4.69932,1.94723 -9.58562,3.20222 -14.51758,3.80079 -0.20293,0.0197 -0.39464,0.0462 -0.59961,0.0645 -0.0826,0.009 -0.16542,0.0147 -0.24804,0.0234 -2.44363,0.2099 -4.99147,0.30677 -7.41993,0.30273 -19.202596,-0.46929 -37.868447,-10.52584 -47.552731,-27.96289 -11.5125,-20.1375 -14.724218,-44.39922 -11.824218,-67.13672 0.6375,-22.975 8.3875,-45.02617 17.8125,-65.76367 12.0375,-23.175 31.150004,-46.137111 58.749999,-49.412111 1.09017,-0.265975 2.1863,-0.477991 3.28711,-0.65625 0.57597,-0.03734 1.05684,-0.04706 1.29102,0.01172 0.73042,0.183324 1.0253,0.110811 0.83007,-0.205078 -0.0214,-0.03468 -0.0107,-0.06434 0.008,-0.09375 0.75682,-0.09243 1.51543,-0.173433 2.27539,-0.242188 0.78621,-0.0026 1.70824,0.0098 2.93359,0.05664 l 5.51758,0.210938 -4.66992,-0.550782 c -0.0105,-0.0012 -0.0207,-0.0027 -0.0312,-0.0039 0.39861,-0.02468 0.7964,-0.05271 1.19531,-0.07617 -2.93789,-0.501562 -5.85994,-0.776254 -8.75781,-0.839843 -0.8754,-0.01921 -1.7486,-0.01875 -2.61914,0 z m 68.81836,86.962892 c 0.036,-1.56111 0.0553,-3.12247 0.0469,-4.68555 -0.25835,2.16098 -0.24717,3.66806 -0.0469,4.68555 z M 121.45508,90.978516 c -14.99369,-0.17011 -28.894924,8.983596 -36.89258,21.421874 -4.775,6.95 -7.249219,15.12461 -10.761719,22.72461 -8.275,25.3375 -10.7,52.46328 -7.875,78.92578 -0.2375,-33.7 2.29961,-71.46367 24.16211,-98.76367 9.090151,-9.99421 24.594079,-15.342844 36.890629,-7.85547 0.21845,0.14556 0.43573,0.3014 0.65234,0.45703 13.61068,10.98837 18.34372,29.08625 21.48242,45.51172 1.55,13.025 1.47422,26.37539 -0.11328,39.40039 -4.04567,26.4467 -8.55355,55.63581 -29.07227,74.82422 -0.0716,0.0546 -0.15596,0.10031 -0.22851,0.15234 -5.40693,3.06389 -11.36095,5.24745 -17.4375,6.47266 6.15,1.6 12.41328,0.21172 18.36328,-1.42578 l 0.53711,-0.86133 c 11.025,-5 19.41367,-14.025 24.95117,-24.6875 14.1625,-29.325 17.52461,-62.58711 16.34961,-94.78711 -2.25,-23.7375 -10.56367,-53.725389 -36.32617,-61.150389 -1.56914,-0.223828 -3.13057,-0.341778 -4.68164,-0.359375 z m 148.95117,39.283204 c -11.61772,-0.41445 -16.24141,15.95351 -26.24414,18.51367 -0.3625,-1.6125 -1.07383,-4.85039 -1.42383,-6.46289 0.1875,12.025 -4.01289,23.6125 -3.83789,35.625 10.3125,-16.4875 19.86211,-34.51211 35.34961,-46.97461 -1.36523,-0.43594 -2.64192,-0.6583 -3.84375,-0.70117 z m 189.83594,9.13086 c -13.00329,-0.0912 -24.48047,9.69453 -32.58008,19.24414 -3.85,2.3375 -5.81211,11.9375 -11.34961,9 -2.0625,7.1625 -3.57539,14.67539 -7.65039,21.02539 -11.7875,18.375 -32.62539,26.91211 -49.71289,39.16211 -0.15,3.325 -0.21133,6.65078 -0.17383,9.98828 19.0625,-10.4125 38.67461,-22.325 50.66211,-41 1.9125,-2.9125 3.02578,-6.97422 6.55078,-8.38672 2.5,3.5375 4.1125,8.01133 7.75,10.61133 4.925,-4.5 7.62383,-10.93711 12.48633,-15.53711 -0.625,15.1875 -4.64961,29.93711 -6.53711,44.97461 -1.825,7.125 -2.92578,14.43828 -3.23828,21.80078 -2.7375,14.4 -5.27461,28.85039 -8.22461,43.21289 -0.3,1.3375 -0.58711,2.67344 -0.84961,4.02344 11.625,-0.0125 23.28711,0.32578 34.91211,-0.13672 l 0.25,-1.09961 c 0.7,-2.8 1.27617,-5.62461 1.70117,-8.47461 4.175,-22.4125 6.63633,-45.10156 10.98633,-67.47656 2.75,-15.4375 11.90117,-28.86172 23.70117,-38.88672 0.5625,0.05 1.69922,0.14922 2.26172,0.19922 -2.2125,25.925 -10.2125,51.05117 -13.9375,76.82617 -0.8625,9.3 -3.96328,19.03633 -0.0508,28.11133 2.375,13.9125 18.65,18.9625 29.8125,11.6875 12.3,-10.2 22.91367,-22.47383 31.70117,-35.79883 2.4125,-3 -0.31328,-6.86289 -0.80078,-10.02539 -3.225,10.05 -12.06172,17.2625 -18.63672,25.1875 -5.8625,6.4 -19.66211,17.5875 -26.34961,6.9375 -6.575,-14.025 -2.10156,-30.54922 0.14844,-45.13672 3.75,-24.7875 11.5875,-49.05078 13,-74.11328 -8.7,-5.275 -15.76211,5.36289 -21.66211,10.90039 -29.1625,27.825 -21.66172,71.74922 -31.94922,107.44922 -6.2875,-1.025 -14.07578,2.25078 -19.67578,-1.26172 7.5375,-39.35 13.1,-79.06328 19.5,-118.61328 0.45,-2.65 -3.57461,-3.35 -5.09961,-1.625 -7.525,4.625 -12.43789,12.0625 -17.15039,19.3125 -9.175,-5.875 -0.69961,-12.61172 4.08789,-18.51172 8.5125,-9.55 17.88672,-18.88789 30.19922,-23.21289 -1.37578,-0.23203 -2.73687,-0.34798 -4.08203,-0.35742 z m 49.83593,0.043 c -13.46456,0.0265 -23.82812,11.4707 -33.0039,20.17773 -6.075,2.9375 -2.7625,-6.41289 -3.6875,-9.96289 -1.8875,10.1125 -3.42461,20.32383 -4.59961,30.54883 13.7625,-14.3875 25.80039,-31.23633 44.02539,-40.61133 -0.92578,-0.10391 -1.8367,-0.15411 -2.73438,-0.15234 z m -123.02734,15.78711 c -3.94592,-0.0641 -8.22656,2.90429 -10.6875,6.30273 l -0.55078,0.77539 c -2.4375,3 -3.675,6.67383 -5.3125,10.11133 -4.7375,13.7125 -9.21211,27.98867 -9.28711,42.63867 4.875,-2.8625 9.48711,-6.20078 13.84961,-9.80078 13.2125,-10.3625 27.58672,-28.76172 18.26172,-46.07422 -1.65938,-2.78437 -3.90589,-3.91467 -6.27344,-3.95312 z m 141.02344,1.92773 c -3.025,32.0875 -13.725,62.9875 -17.1875,95.0625 -0.5875,5.0125 -1.0875,10.02422 -1.375,15.07422 11.45,3.575 15.87539,-15.18633 25.02539,-19.98633 -2.15,-1.875 -3.68711,-6.01406 -6.72461,-5.85156 -4.6375,5.5875 -9.27461,11.18789 -13.84961,16.83789 -3.65,-11.2375 2.4125,-23.47461 4.375,-34.84961 3.4875,-22.0125 11.71133,-43.84961 9.73633,-66.28711 z m 159.11719,4.10938 c -10.37528,0.16299 -20.5586,6.95468 -24.56641,16.47851 -10.0375,19.0375 -16.1625,40.92422 -14.875,62.57422 2.1625,-14.75 1.98499,-26.32908 8.79749,-39.82908 3.3125,-6.7625 0.95532,-2.3928 6.17592,-9.25075 4.25,-1.975 6.73766,-4.70229 9.36273,-1.50771 -1.07052,9.05 -2.09893,9.50145 -3.31143,18.46395 -4.5625,21.125 -4.84601,32.79725 -15.82549,54.81109 -0.4859,-2.80931 12.05117,1.26211 15.45117,-3.40039 22.35,-20.8375 21.13711,-53.62383 27.41211,-81.29883 0.2,-4.9125 6.025,-16.87578 -2.875,-16.42578 -1.89648,-0.44922 -3.82475,-0.64542 -5.74609,-0.61523 z M 378,168.75391 c 2.85049,-0.0391 6.11719,1.80859 5.82422,4.99609 0.6875,11.8375 -7.4,21.41172 -15.5625,28.94922 -1.075,0.375 -2.1625,0.7375 -3.25,1.0625 2.1,-12.3 5.06328,-24.67461 12.42578,-34.97461 0.18516,-0.0195 0.37247,-0.0306 0.5625,-0.0332 z m 22.32031,66.97461 c -0.6209,-0.0574 -1.3039,0.26562 -2.08203,1.17187 -10.275,10.05 -20.02656,21.09961 -32.66406,28.28711 16.9,2.675 27.25,-15.38828 39.4375,-24.23828 -1.5375,-1.4625 -2.82871,-5.04844 -4.69141,-5.2207 z"
     id="path3380"
     transform="scale(0.8,0.8)"
     style="fill:#a3a100;fill-opacity:1"
     inkscape:connector-curvature="0"
     sodipodi:nodetypes="ccccccccccccccccccccccccccccccccccccccccccccccccccccccccccccccccccccccccccccccccccccccccscccccccscccccsscccccccccccccccccccccccccccccccccccccccccccccccccccccscccccccccccccccccccccccccccsccccccccsscccsccccccccccccccccssccccssccccccccccccccccccccccccccccccccccccssccccssccccccsccccccccsccccccccccscccccccccccccc" />
  <path
     style="fill:#d12313;fill-opacity:1"
     d="M 821.82812 40.931641 C 820.94759 40.924944 820.05273 40.999219 819.15039 41.162109 C 794.76289 45.262109 777.27578 66.411719 770.30078 89.074219 C 758.66328 139.47422 752.13711 190.84961 744.22461 241.91211 C 742.96211 254.82461 738.6875 268.60078 743.875 281.17578 C 747.35 290.66328 758.89922 287.68711 764.82422 282.47461 C 777.72422 272.76211 789.25 260.57578 796.6875 246.17578 C 795.375 243.77578 793.51211 241.76211 791.53711 239.91211 C 784.67461 250.72461 775.4875 260.4 764.875 267.5 C 759.275 268.175 761.57422 260.22422 762.01172 257.32422 C 771.14922 196.93672 778.73789 136.27539 790.15039 76.275391 C 792.01289 71.287891 793.50039 63.787109 800.02539 63.724609 C 811.80039 63.337109 830.975 72.837109 836.25 57.287109 C 837.47344 48.64375 830.34017 40.996379 821.82812 40.931641 z M 327.4375 67.212891 C 311.3 67.875391 308.53828 101.80078 327.36328 98.738281 C 332.41328 96.163281 335.57461 91.2 337.22461 85.9375 C 338.82461 78.6875 336.225 67.925391 327.4375 67.212891 z M 130.28711 77.050781 C 126.03711 77.300781 121.80039 77.587109 117.65039 78.599609 C 90.050393 81.874609 70.937891 104.83672 58.900391 128.01172 C 49.475391 148.74922 41.725391 170.80039 41.087891 193.77539 C 38.187891 216.51289 41.399609 240.77461 52.912109 260.91211 C 66.512109 285.39961 97.825393 295.34961 123.46289 284.59961 C 126.52539 283.07461 129.6 281.575 132.5625 279.875 C 142.5 273.9875 150.96289 265.775 157.46289 256.25 C 171.18789 237.575 179.63828 215.58828 184.73828 193.11328 C 186.63828 181.66328 187.83789 170.10078 187.77539 158.48828 C 187.71289 151.41328 186.96172 144.38672 186.13672 137.38672 C 181.16172 108.84922 161.98711 78.513281 130.28711 77.050781 z M 120.44141 91.232422 C 123.05918 91.225807 124.81908 91.240211 126.18164 91.351562 C 151.90834 98.798797 160.21422 128.7648 162.46289 152.48828 C 163.63789 184.68828 160.27578 217.95039 146.11328 247.27539 C 140.57578 257.93789 132.18711 266.96289 121.16211 271.96289 L 120.69141 272.7168 C 120.59329 272.77732 120.45476 272.84292 120.29297 272.91211 C 114.44174 274.50937 108.29802 275.82042 102.26172 274.25 C 76.199217 267.6 67.925781 237.62578 65.925781 214.05078 C 65.287685 208.07357 64.933369 202.06156 64.837891 196.04492 C 64.820022 192.37849 64.869652 188.44674 64.972656 184.8125 C 65.671745 167.94821 68.55829 151.17716 73.800781 135.125 C 77.313281 127.525 79.7875 119.35039 84.5625 112.40039 C 91.565069 101.50971 103.09307 93.136631 115.91797 91.335938 C 117.1789 91.268344 118.62502 91.237012 120.44141 91.232422 z M 600.38672 103.9375 C 592.94922 106.65 584.66289 109.41328 579.21289 115.42578 C 576.10039 127.12578 575.46211 139.37539 572.16211 151.02539 C 565.82461 153.56289 553.46211 146.50078 550.97461 155.23828 C 547.08711 169.32578 562.41172 161.42578 569.88672 165.23828 C 566.17422 204.13828 551.12422 242.67539 556.76172 281.96289 C 560.38672 292.37539 573.27461 288.975 580.03711 283.4375 C 589.21211 277.1625 596.70039 268.84961 604.58789 261.09961 C 609.68789 255.02461 622.9375 248.425 613.9375 240.0625 C 601.0875 244.875 593.52461 265.8125 578.22461 262.6875 C 574.91211 260.475 576.2875 256.01328 576.125 252.55078 C 577.65 227.21328 584.22422 202.5 587.51172 177.375 C 588.07422 172.825 589.01328 168.32578 590.30078 163.92578 C 598.21328 160.81328 613.53711 169.18828 617.41211 159.73828 C 622.46211 143.60078 600.425 154.39961 592.5 151.16211 C 594.1625 135.31211 597.04922 119.5 600.38672 103.9375 z M 277.30273 130.64453 C 276.35244 130.61301 275.33594 130.71289 274.25 130.96289 C 258.7625 143.42539 249.21289 161.45 238.90039 177.9375 C 238.72539 165.925 242.92578 154.3375 242.73828 142.3125 C 242.11328 141.2125 241.27539 140.31328 240.21289 139.61328 C 222.98789 139.40078 211.58828 154.19961 200.42578 165.09961 C 196.92578 169.76211 190.66172 176.35078 198.63672 180.23828 C 205.09922 173.21328 210.1125 164.45039 218.75 159.83789 C 220.4125 160.55039 221.9 161.69922 221.0625 163.69922 C 215.125 204.29922 207.12539 244.59922 199.96289 284.94922 C 206.33789 283.34922 216.71172 288.50039 221.13672 282.33789 C 227.96172 245.75039 228.10078 205.43789 251.98828 174.77539 C 257.48828 166.06289 266.92578 160.88672 276.17578 157.01172 C 281.73828 154.12422 286.76289 150.2625 287.90039 143.8125 C 287.3207 137.50156 283.95479 130.86516 277.30273 130.64453 z M 722.52539 133.76172 C 716.97539 133.89922 712.51211 136.82422 710.59961 142.07422 C 699.32461 141.98672 688.13672 142.56289 677.82422 147.58789 C 654.72422 164.58789 640.85078 190.58789 632.42578 217.40039 C 627.47578 237.60039 623.2125 259.67578 631.625 279.61328 C 634.3375 286.97578 644.01211 290.45 650.97461 287.125 C 665.11211 280.3625 674.27461 266.37539 684.91211 256.02539 C 683.58711 265.67539 679.83672 275.84961 682.07422 285.34961 C 690.17422 291.24961 701.46211 285.08672 708.03711 278.88672 C 716.97461 272.13672 723.35078 262.67539 730.23828 253.96289 C 731.68828 252.60039 730.75 250.71289 730.5 249.08789 C 729.4375 248.00039 728.37422 246.91172 727.32422 245.82422 C 719.91172 250.81172 715.81289 260.01289 707.33789 263.71289 C 705.06289 264.67539 703.73672 262.53789 702.38672 261.15039 C 702.38672 258.97539 702.79961 256.825 703.22461 254.6875 C 704.06211 248.9875 704.55 243.24922 705 237.51172 C 708.325 202.56172 717.17539 168.39922 722.52539 133.76172 z M 312.75781 139.38281 C 304.19751 139.74905 297.18516 146.08633 290.69922 151.15039 C 285.76172 155.31289 282.31328 160.83711 277.67578 165.28711 C 272.80078 170.33711 271.15039 177.0125 278.71289 180.125 C 286.07539 174.8375 288.33828 162.0125 298.67578 160.875 C 302.53828 170.725 295.96289 180.37539 295.21289 190.15039 C 289.40039 219.80039 281.51289 249.51211 281.33789 279.84961 C 282.41289 291.24961 296.96289 291.4625 302.90039 284.1875 C 312.63789 276.4625 321.17539 267.25078 328.58789 257.30078 C 331.83789 254.15078 327.59922 247.82539 324.01172 247.58789 C 320.91172 251.28789 318.12539 255.22461 315.08789 258.97461 C 311.20039 261.54961 307.83672 270.075 302.38672 267.625 C 304.34922 226.7875 317.6375 187.51172 323.0625 147.13672 C 322.4125 143.74922 319.85039 140.65078 316.52539 139.61328 C 315.23633 139.40078 313.98071 139.33049 312.75781 139.38281 z M 394.55469 139.38477 C 393.59649 139.40657 392.61953 139.49336 391.625 139.65039 C 384.55 142.25039 377.11211 145.0125 372.16211 151 C 363.73711 158.45 357.41211 168.22422 353.41211 178.69922 C 340.47461 204.63672 335.18789 234.425 336.71289 263.25 C 337.58789 273 340.22461 286.06289 351.41211 288.71289 C 359.73711 289.90039 367.73828 287.08711 374.98828 283.34961 C 387.70078 272.97461 401.57578 262.26211 409.17578 247.47461 C 407.93828 245.21211 406.53672 243.02422 405.01172 240.94922 C 392.82422 249.79922 382.47422 267.8625 365.57422 265.1875 C 361.12343 262.98749 359.45552 258.96426 358.89062 254.41797 C 358.80339 252.78188 358.76521 249.81152 358.72656 245.58203 C 358.83207 242.80874 358.95835 240.12775 358.77539 237.8125 C 358.73838 234.51876 358.79958 231.23651 358.94531 227.95508 C 359.03126 227.84391 359.1919 227.69373 359.35156 227.54492 C 376.36358 215.4461 396.96593 206.89476 408.66211 188.66211 C 412.73711 182.31211 414.25 174.79922 416.3125 167.63672 C 418.9375 153.44531 408.9276 139.05774 394.55469 139.38477 z M 513.72266 139.54102 C 513.42406 139.54647 513.1207 139.56172 512.8125 139.58789 C 494.5875 148.96289 482.54961 165.81172 468.78711 180.19922 C 469.96211 169.97422 471.49922 159.76289 473.38672 149.65039 C 473.61172 148.70039 474.05039 146.8125 474.27539 145.875 C 472.56289 141.8375 468.77422 139.2125 464.32422 139.75 C 452.01172 144.075 442.6375 153.41289 434.125 162.96289 C 429.3375 168.86289 420.86211 175.59961 430.03711 181.47461 C 434.74961 174.22461 439.6625 166.78711 447.1875 162.16211 C 448.7125 160.43711 452.73711 161.13711 452.28711 163.78711 C 445.88711 203.33711 440.32461 243.05039 432.78711 282.40039 C 438.38711 285.91289 446.17539 282.63711 452.46289 283.66211 C 462.75039 247.96211 455.24961 204.03789 484.41211 176.21289 C 490.31211 170.67539 497.37422 160.0375 506.07422 165.3125 C 504.66172 190.375 496.82422 214.63828 493.07422 239.42578 C 490.82422 254.01328 486.35078 270.5375 492.92578 284.5625 C 499.61328 295.2125 513.41289 284.025 519.27539 277.625 C 525.85039 269.7 534.68711 262.4875 537.91211 252.4375 C 536.94961 250.625 535.78711 248.91328 534.53711 247.30078 C 525.38711 252.10078 520.96172 270.86211 509.51172 267.28711 C 509.79922 262.23711 510.29922 257.22539 510.88672 252.21289 C 514.34922 220.13789 525.04922 189.23789 528.07422 157.15039 C 527.62617 148.97656 522.97919 139.37193 513.72266 139.54102 z M 387.05078 155.22266 C 389.41833 155.26111 391.66484 156.39141 393.32422 159.17578 C 402.64922 176.48828 388.275 194.8875 375.0625 205.25 C 370.7 208.85 366.08789 212.18828 361.21289 215.05078 C 361.28789 200.40078 365.7625 186.12461 370.5 172.41211 C 372.1375 168.97461 373.375 165.30078 375.8125 162.30078 L 376.36328 161.52539 C 378.82422 158.12695 383.10486 155.15857 387.05078 155.22266 z M 681.05469 174.57812 C 681.9438 174.59807 682.84961 174.71016 683.77539 174.9375 C 683.20039 183.9875 680.4 192.68789 679.1875 201.65039 C 674.625 222.77539 673.74922 250.75 652.94922 263 C 646.38672 257.7 647.15 247.8625 647.75 240.3125 C 649.9125 225.5625 651.38672 210.34961 658.19922 196.84961 C 661.51172 190.08711 663.17539 181.8 670.21289 177.75 C 673.66602 176.14531 677.20186 174.49168 681.05469 174.57812 z "
     transform="scale(0.8,0.8)"
     id="path3382" />
  <path
     style="fill:#333635"
     d="M 243.37305 353.49609 C 223.43881 353.44633 207.6582 372.25977 204.78711 391.16211 C 199.36211 415.83711 193.19922 440.52539 187.44922 465.02539 C 191.82422 464.31289 199.59961 467.71211 200.09961 461.28711 C 204.29961 443.12461 206.30078 420.91172 224.98828 411.26172 C 227.95078 410.11172 232.33828 407.06172 234.92578 410.26172 C 233.51328 428.86172 220.475 445.96289 224.6875 465.08789 C 225.3 466.32539 226.21172 467.22578 227.44922 467.80078 C 238.41172 467.15078 246.41211 458.63711 254.28711 451.97461 C 253.21211 450.63711 252.0125 449.42461 250.6875 448.34961 C 246.5875 452.63711 242.06328 457.1375 236.30078 458.9375 C 235.47578 445.725 241.12539 433.4625 244.65039 421 L 244.9375 420.07422 C 246.925 413.23672 250.02461 404.51211 244.84961 398.53711 C 231.04961 397.68711 221.675 409.36289 211.375 416.58789 C 211.4 410.70039 213.40507 405.34687 214.0625 399.39648 C 215.20439 395.51863 215.75242 390.49647 216.84961 387.53711 C 218.41211 380.33711 219.82422 372.73828 224.01172 366.55078 C 230.16172 358.16328 242.76328 369.5625 249.73828 362.25 C 253.02578 360 250.99961 354.36172 247.41211 353.76172 C 246.04883 353.58516 244.702 353.49941 243.37305 353.49609 z M 293.97656 363.97266 C 293.62717 363.98948 293.26758 364.04297 292.90039 364.13672 C 287.33789 364.48672 284.625 370.92422 286.4375 375.88672 C 288.9375 380.53672 295.1125 378.875 297.8125 375.3125 C 302.27734 371.70312 299.21745 363.72034 293.97656 363.97266 z M 623.33789 368.38672 C 600.95545 371.80742 574.87539 390.15 577.46289 416.25 C 577.62539 424.4625 583.28789 439.06289 594.02539 433.90039 C 594.71289 426.43789 585.61172 423.93828 583.88672 417.36328 C 578.51172 387.78828 615.475 367.225 641.0625 375.25 C 652.0625 378.7125 654.32539 393.4625 648.27539 402.0625 C 642.70039 410.7625 632.48828 414.58711 622.42578 412.47461 C 623.58828 401.79961 627.08828 391.51172 629.73828 381.13672 C 623.17578 381.97422 616.52539 382.475 610.08789 384 C 608.33789 388.175 614.44961 386.49922 613.78711 390.07422 C 612.23711 403.47422 608.56211 416.60039 605.47461 429.71289 C 603.31211 438.68789 603.40039 449.45078 596.02539 455.98828 C 592.66289 459.01328 584.31172 457.70039 584.88672 463.58789 C 591.14922 462.83789 597.41328 462.23789 603.73828 462.46289 C 610.56328 462.41289 617.34922 462.65039 624.19922 462.83789 C 625.33672 461.23789 628.07461 457.975 624.09961 459.0625 C 619.08711 459.2 607.91328 463.17539 611.98828 454.71289 C 615.35078 443.00039 617.67422 431.025 620.51172 419.1875 C 620.93672 416.5875 625.43672 416.83828 625.44922 419.55078 C 630.51172 435.06328 635.58789 450.67461 643.90039 464.84961 C 646.23789 467.06211 648.12461 469.68828 649.72461 472.48828 C 659.73711 484.23828 680.23711 493.11172 692.91211 480.44922 C 697.63711 477.58672 698.07422 469.3375 692.51172 467.4375 C 685.07422 468.6 687.66289 479.23672 680.77539 480.88672 C 663.21289 484.53672 654.93711 464.13711 649.22461 450.78711 C 644.74961 439.58711 640.57539 428.2625 635.08789 417.5 C 655.10039 416.4 673.29064 392.18633 659.86328 374.97461 C 653.13642 368.81951 648.04679 368.97507 641.33789 368.61328 C 635.31289 368.63828 632.60815 368.36134 623.33789 368.38672 z M 161.92578 369.73242 C 156.67966 369.66299 151.47695 370.59414 146.58789 372.90039 C 122.78789 381.91289 107.725 405.7125 102.3125 429.75 C 100.8875 436.4875 100.61289 443.6 102.08789 450.375 C 102.19414 446.93125 102.31875 443.49453 102.38281 440.05859 C 102.31875 443.49453 102.19414 446.93125 102.08789 450.375 C 104.02539 458.0125 107.17461 465.45 112.47461 471.375 C 113.33711 472.15 114.2 472.93828 115.0625 473.73828 C 133.3625 488.58828 162.82461 479.10078 172.03711 458.36328 C 173.57461 455.97578 170.5375 455.8125 168.9375 455.25 C 161.5125 466.125 148.58828 476.96289 134.48828 473.02539 C 123.06328 469.85039 119.26172 458.12422 117.01172 447.88672 C 117.22422 442.22422 117.25078 436.60039 117.17578 430.96289 C 120.35078 411.48789 128.50078 390.56172 146.23828 380.01172 C 153.73828 375.19922 164.32539 372.45078 172.27539 377.73828 C 180.77539 384.28828 178.05078 395.72539 178.92578 405.02539 C 183.06328 406.16289 182.72192 403.38473 184.42578 397.11133 C 185.93162 389.64844 187.475 383.69961 187.25 376.66211 C 179.53125 372.74023 170.66931 369.84814 161.92578 369.73242 z M 1207.25 373.55078 C 1197.4 374.38828 1190.8242 381.12539 1191.5742 391.40039 C 1192.4742 399.91289 1178.6504 390.54922 1177.5254 397.57422 C 1175.3004 404.58672 1186.0133 399.34961 1188.8008 401.34961 C 1187.9008 414.48711 1183.2996 427.02578 1181.2871 439.98828 C 1181.2121 444.96328 1181.2 449.93828 1181.25 454.92578 C 1183.1875 460.96328 1191.1742 459.1 1195.7617 456.9375 C 1203.6617 452.075 1211.3367 446.82422 1218.6367 441.07422 C 1220.6992 435.47422 1213.4004 437.13711 1211.4629 440.22461 C 1206.2754 443.48711 1198.9758 451.33828 1192.6133 445.98828 C 1194.2258 430.88828 1197.4117 415.27539 1202.1367 400.96289 C 1206.4617 398.20039 1212.8383 401.05039 1217.7383 399.90039 C 1218.4133 389.56289 1194.8883 403.80039 1203.5508 388.58789 C 1205.9883 383.96289 1205.5375 378.45078 1207.25 373.55078 z M 814.91211 378.59961 C 810.69961 379.36211 806.70039 381.02422 802.90039 382.94922 C 800.35039 388.17422 800.47461 394.27578 798.34961 399.67578 C 795.17461 400.00078 788.82539 400.63789 785.65039 400.96289 C 784.72539 409.81289 801.81172 400.26211 796.76172 410.28711 C 793.54922 424.31211 789.01289 438.16172 787.52539 452.51172 C 786.23789 457.79922 790.37422 466.7375 797.32422 463.625 C 807.86172 459.6625 816.72461 452.37578 825.34961 445.36328 C 828.22461 443.68828 823.925 439.45 822.125 442.125 C 815.7625 445.3375 807.34961 455.97422 800.09961 450.88672 C 801.41211 435.74922 804.66211 420.12422 809.66211 405.88672 C 814.29961 403.19922 820.52539 406.22422 825.58789 405.44922 C 829.58789 395.89922 815.975 401.27539 810.25 399.96289 C 811.5375 392.78789 813.51211 385.74961 814.91211 378.59961 z M 1029.3164 388.27734 C 1028.4421 388.29699 1027.532 388.53984 1026.6367 389.0625 C 1018.3867 393.35 1013.2625 401.15039 1007.5625 408.15039 C 1002.6875 416.40039 1003.6629 408.00039 1005.7129 402.21289 C 1005.8879 399.12539 1009.2367 394.95 1005.9492 392.625 C 997.22422 392.1125 989.91289 398.48672 983.40039 403.38672 C 981.81289 405.37422 974.23711 409.91328 979.97461 411.23828 C 984.73711 408.77578 987.54922 401.81172 993.76172 402.44922 C 992.38672 419.48672 987.77539 436.03789 984.02539 452.65039 C 978.70039 462.87539 991.18789 457.07422 994.65039 458.63672 C 999.22539 441.31172 999.00078 421.2 1013.3633 408.375 C 1019.0383 401.8625 1028.8125 401.87539 1034.8125 395.96289 C 1036.2445 392.29648 1033.1053 388.19221 1029.3164 388.27734 z M 1086.2617 389.94922 C 1074.7617 394.71172 1060.1758 392.125 1050.1758 401.375 C 1035.4883 413.7875 1023.8254 434.25 1028.7129 453.8125 C 1032.8504 466.6875 1047.8246 459.475 1054.9746 453.5625 C 1057.9871 450.3875 1060.5246 445.9375 1064.9746 444.8125 C 1063.3871 449.825 1061.9375 454.875 1063.5 460.1875 C 1075.2875 461.4625 1084.7008 452.57539 1092.3008 444.71289 C 1090.9883 435.18789 1080.4492 454.62539 1075.1367 448.46289 C 1076.4742 428.52539 1082.7492 409.37422 1086.2617 389.94922 z M 1153.9805 390.42578 C 1150.0761 390.61183 1145.5758 393.09336 1142.8125 395.28711 C 1135.9625 398.69961 1131.6883 405.5125 1124.9258 408.9375 C 1123.7133 403.4 1127.9496 397.14961 1126.5371 392.03711 C 1120.3746 388.74961 1114.1246 393.78828 1108.5371 396.23828 C 1107.2746 397.86328 1105.6742 399.16289 1103.8242 400.02539 C 1101.7242 402.96289 1097.9871 405.06289 1097.3496 408.83789 C 1103.6746 409.78789 1109.1742 397.23789 1113.4492 401.65039 C 1111.4492 420.46289 1106.8008 438.99922 1102.6133 457.44922 C 1106.5383 457.39922 1110.7 457.78789 1114.6875 457.27539 C 1120.05 440.95039 1117.0746 420.15039 1132.3496 408.58789 C 1136.7371 405.77539 1143.4242 397.97422 1148.6992 402.76172 C 1147.1117 416.11172 1142.4367 429.0125 1139.6992 442.1875 C 1138.5242 446.5375 1138.5371 450.88828 1139.7246 455.23828 C 1144.3496 465.57578 1156.2 455.675 1160.9375 450.9375 C 1162.475 448.225 1172.2496 443.31211 1166.2871 441.16211 C 1161.1746 444.03711 1157.8 451.07578 1151.25 450.05078 C 1150.2 431.25078 1161.6746 414.0875 1160.9121 395.375 C 1159.6926 391.525 1157.0172 390.28107 1153.9805 390.42578 z M 889.86914 392.25977 C 889.34198 392.24786 888.70391 392.32305 887.9375 392.5 C 882.625 400.4 871.33828 394.14961 863.86328 398.91211 C 848.15078 407.01211 836.23711 423.76211 833.72461 441.22461 C 833.76211 444.99961 833.65039 448.72539 833.71289 452.52539 C 834.05039 466.33789 851.48711 464.92539 858.53711 457.08789 C 861.72461 454.06289 865.14961 451.31211 868.66211 448.66211 C 868.17461 452.87461 867.62422 457.03828 867.51172 461.30078 C 867.87422 461.62578 868.61211 462.27539 868.97461 462.58789 C 869.64961 464.81289 875.31172 464.81328 876.01172 462.61328 C 877.42422 462.57578 878.68672 462.09961 879.82422 461.16211 C 886.24922 456.82461 893.13828 452.7875 897.67578 446.3125 C 893.91328 438.7 886 456.77422 880.0625 451.01172 C 881.675 435.34922 885.18828 419.875 889.55078 404.75 C 889.68672 400.67188 894.96507 392.37485 889.86914 392.25977 z M 926.46484 393.54297 C 925.72722 393.53271 924.8958 393.61656 923.94922 393.78711 C 915.91172 397.83711 907.6875 402.45078 902.375 409.92578 C 908.575 414.40078 912.44922 403.20078 918.69922 403.55078 C 919.27422 406.88828 919.11679 408.31804 917.25391 416.76562 C 914.76057 432.66562 903.71761 456.57836 911.47461 461.03711 C 924.31211 466.66211 934.91172 452.15078 944.76172 445.98828 C 942.53672 452.56328 942.81172 465.12578 953.26172 462.05078 C 960.93672 458.13828 971 452.48828 972.5625 443.67578 C 965.525 442.76328 963.88828 454.47578 956.55078 452.36328 C 953.00078 450.32578 955.23519 447.00701 956.46289 442.61328 C 960.17539 426.81328 964.21172 411.075 967.57422 395.1875 C 964.06172 395 960.56289 394.82422 957.08789 394.63672 C 956.38789 395.57422 955.72578 396.53789 955.11328 397.52539 C 953.96988 407.30599 951.35854 418.43069 947.9375 428.9375 C 944.7875 439.175 932.36879 452.43125 925.31641 451.40625 C 921.27891 450.80625 922.39982 447.30005 922.9668 441.54883 C 924.20202 434.85602 927.9446 420.46351 931.09961 407.36328 C 932.06252 403.18761 932.03595 400.29272 931.15039 396.34961 C 930.04771 394.44883 928.67771 393.57374 926.46484 393.54297 z M 763.69922 395.01758 C 761.51797 395.01914 759.34453 395.34922 757.17578 396.01172 C 747.72578 398.44922 739.53828 407.79922 741.98828 417.94922 C 744.80078 428.59922 754.625 434.86172 759.6875 444.19922 C 762.6125 452.73672 753.22578 460.97539 744.98828 458.83789 C 735.10078 460.12539 742.50039 444.20039 732.77539 444.27539 C 723.70039 445.03789 726.25039 455.6375 731.02539 460.0625 C 744.27539 468.4 765.3 463.56289 770.4375 447.90039 C 774.2125 433.31289 758.56211 424.97578 752.47461 413.80078 C 748.31211 407.78828 754.70078 397.64922 762.36328 401.26172 C 766.68828 403.94922 771.39961 412.67539 777.28711 407.27539 C 780.51211 404.87539 777.22422 401.08789 776.19922 398.40039 C 774.21172 397.60039 772.28672 396.6625 770.26172 396 C 768.06797 395.34375 765.88047 395.01602 763.69922 395.01758 z M 709.33008 395.45508 C 707.12731 395.4443 704.92344 395.8418 702.94922 396.67578 C 690.88672 401.02578 683.56289 412.48789 678.83789 423.77539 C 674.02539 435.40039 669.35078 452.11328 679.11328 462.11328 C 693.01328 467.91328 706.93828 457.18711 716.67578 447.91211 C 719.82578 447.39961 718.08789 441.11289 715.33789 442.83789 C 707.42539 447.17539 700.38828 455.975 690.36328 453.5625 C 684.65078 449.875 688.46211 441.84922 687.53711 436.38672 C 699.97461 428.98672 717.06172 425.07422 722.44922 409.88672 C 725.05664 400.73633 717.1971 395.49359 709.33008 395.45508 z M 326.53125 396.42578 C 325.53862 396.46996 324.2729 396.79731 322.66211 397.5 C 315.9668 400.49705 309.3875 403.875 304.0625 409 C 302.1375 410.95 298.17578 413.50039 301.30078 416.21289 C 306.28828 413.31289 310.08789 407.42539 316.27539 407.40039 C 313.71289 426.47539 307.5875 444.98789 303.75 463.83789 C 303.4 465.06289 317.15039 467.6625 316.40039 462.6875 C 320.67539 445.7875 320.25039 424.67422 336.40039 413.82422 C 340.38789 411.26172 346.72422 405.88672 351.07422 410.26172 C 348.16172 426.61172 339.83789 441.89922 339.90039 458.76172 C 339.57539 461.87422 341.48672 464.52578 343.69922 466.48828 C 352.54922 466.58828 359.42578 459.80078 365.92578 454.73828 C 368.36328 452.76328 372.34922 449.14961 367.57422 447.28711 C 362.32422 450.41211 358.96289 457.1125 352.52539 457.6875 C 351.45039 443.075 358.25078 429.65039 362.30078 415.96289 C 363.01328 413.61289 363.72461 411.26211 364.41211 408.91211 C 365.51911 405.72736 365.42457 404.69178 364.36328 402.34961 C 358.64536 395.26083 354.5881 396.89066 348.66211 400.73438 C 341.86211 405.59688 334.8875 409.4 328.8125 415.1875 C 326.59045 417.71506 326.12322 416.52576 327.21289 412.70312 C 328.78592 406.7515 329.20939 405.60087 330 401.125 C 330.02577 398.70274 329.50915 396.29326 326.53125 396.42578 z M 284.85938 397.10742 C 283.80918 397.0373 282.72578 397.29453 281.73828 397.98828 C 272.90078 400.52578 265.32422 406.57461 259.76172 413.78711 C 260.34922 415.41211 262.2625 415.84922 263.625 416.63672 C 266.6875 412.37422 270.49961 407.39922 276.22461 407.32422 C 275.36211 419.41172 269.91211 430.53711 267.09961 442.22461 C 266.77461 450.11211 258.91211 462.83672 268.84961 467.44922 C 269.38711 467.44922 270.4625 467.42578 271 467.42578 C 279 463.76328 286.625 459.0375 292.875 452.8125 C 294.625 451.3375 293.47539 448.95 292.46289 447.4375 C 287.23789 450.5125 283.58828 456.04961 277.61328 457.78711 C 277.51328 454.46211 277.51328 451.15039 277.61328 447.83789 C 280.75078 432.82539 286.67461 418.58828 289.91211 403.61328 C 290.85898 400.47266 288.00996 397.31777 284.85938 397.10742 z M 466.23438 397.33984 C 456.89922 397.57539 447.23438 402.01289 444.9375 411.46289 C 444.9375 413.55039 444.92461 417.70039 444.91211 419.77539 C 445.72461 431.22539 458.41328 436.5875 462.11328 446.6875 C 464.92578 457.65 450.2625 463.61172 442.125 459.13672 C 437.075 455.09922 442.82578 442.64922 431.61328 446.44922 C 424.00078 452.02422 431.83672 463.06211 438.82422 465.03711 C 445.93672 465.07461 453.05078 464.7 460.11328 463.8125 C 460.75078 463.525 461.99922 462.93789 462.63672 462.65039 C 466.57422 459.01289 470.4375 455.11211 472.6875 450.16211 C 472.775 446.64961 472.84922 443.15039 472.88672 439.65039 C 471.51172 436.21289 469.30039 433.20078 467.21289 430.17578 C 462.36289 425.60078 458.37461 420.25 454.47461 414.875 C 452.78711 412.6875 452.46328 408.47578 454.61328 406.55078 C 457.11328 403.42578 461.26172 400.57578 465.44922 403.23828 C 470.33672 405.07578 472.36328 413.13672 478.42578 411.01172 C 484.07578 407.76172 480.81328 399.56211 475.17578 398.47461 C 472.42266 397.64961 469.34609 397.26133 466.23438 397.33984 z M 413.84375 397.38672 C 413.36291 397.37794 412.88628 397.38177 412.41406 397.39844 C 394.15498 398.04301 382.33086 417.42305 377.3125 433.59961 C 374.925 443.42461 371.83789 456.93828 380.40039 464.61328 C 393.98789 470.21328 406.26211 458.89961 416.47461 451.47461 C 419.49961 449.97461 422.02461 445.0625 417.59961 443.625 C 409.87461 449.05 402.04961 457.54922 391.59961 454.76172 C 386.13711 451.17422 389.23828 443.25039 388.98828 437.83789 C 397.68828 433.58789 406.43672 429.43672 414.88672 424.69922 C 417.29922 422.19922 419.7625 419.74961 422.375 417.47461 C 425.8875 410.94961 426.84961 400.54922 418.28711 397.82422 C 416.76748 397.55527 415.28628 397.41305 413.84375 397.38672 z M 516.21289 397.46289 C 497.72539 400.97539 488.27422 422.07539 485.01172 438.71289 C 484.94922 444.55039 484.88828 450.37461 484.80078 456.22461 C 485.72578 460.61211 488.98789 464.82461 493.77539 465.03711 C 506.80039 466.18711 517.37422 456.96289 526.57422 449.08789 C 530.58672 448.40039 528.36172 442.38789 525.38672 444.08789 C 519.42422 447.82539 514.06172 452.86172 507.01172 454.51172 C 495.99922 458.52422 493.4375 438.91328 500.375 435.30078 C 512.55 430.23828 525.93711 424.78672 532.66211 412.57422 C 532.58711 409.22422 532.51289 405.89922 532.46289 402.57422 C 531.46289 400.21172 529.11289 397.3875 526.27539 397.5 C 522.90039 397.4625 519.55039 397.45039 516.21289 397.46289 z M 704.64062 402.0957 C 708.70853 402.27498 711.60039 407.32812 711.22461 411.13672 C 707.76211 420.86172 698.07461 426.91328 688.72461 430.11328 C 690.21211 420.46328 692.09961 407.69922 701.66211 402.82422 C 702.70039 402.27109 703.70188 402.05433 704.64062 402.0957 z M 1065.0449 402.48438 C 1067.1059 402.48125 1069.1746 402.4875 1071.2871 402.5 L 1072.5879 402.53711 C 1067.8754 417.27461 1068.7867 435.11328 1055.9492 445.98828 C 1051.9242 450.16328 1040.4758 453.10039 1039.9883 445.02539 C 1039.9508 442.71289 1039.9448 440.41533 1039.957 438.12305 C 1039.9695 435.83086 1039.9996 433.54375 1040.0371 431.25 C 1042.4371 419.975 1046.7996 406.46289 1058.8496 402.52539 C 1060.9309 402.50039 1062.984 402.4875 1065.0449 402.48438 z M 515.14648 403.02344 C 520.84317 402.9546 523.38125 411.89297 519.97461 416.23828 C 514.83711 423.27578 506.83672 428.47461 498.69922 431.34961 C 500.99922 421.78711 502.08828 409.16172 511.67578 404.07422 C 512.92969 403.35742 514.09154 403.03618 515.14648 403.02344 z M 406.38281 403.6582 C 412.70151 403.64415 414.69336 412.82422 411.22461 417.48828 C 406.29961 424.28828 398.37422 430 390.01172 431.3125 C 392.83672 421.275 394.325 408.46211 405.0625 403.78711 C 405.52188 403.70039 405.96157 403.65914 406.38281 403.6582 z M 870.68359 404.99805 C 872.53672 404.98711 874.40078 404.9875 876.30078 405 C 880.13828 407.6625 873.525 417.72422 873.8125 422.51172 C 871.825 434.84922 864.42539 453.96289 849.02539 452.33789 C 840.92539 444.62539 845.79961 431.82578 848.97461 422.67578 C 851.67461 415.13828 856.7625 406.875 865.125 405.0625 C 866.9875 405.03125 868.83047 405.00898 870.68359 404.99805 z "
     transform="scale(0.8,0.8)"
     id="path3708" />
  <path
     d="m 600.59375,399.4 c -0.66234,0.0263 -1.49625,0.25469 -2.49375,0.67969 -0.27,0.23 -0.80969,0.70062 -1.07969,0.94062 -2.06,2.2 -5.45,3.75 -5.75,7.1 2.59,6.19 -1.50969,3.95907 -3.92969,4.03907 1.66,11.07 -7.19,-0.34969 -8.55,7.97031 -4.81,8.03 9.32876,11.51031 11.46876,18.02031 0.68,3.09 -1.27876,5.75 -2.21876,8.55 -4.58,7.73 -5.84,18.3 -15,22.35 -9.81,5.64 -17.16124,14.90938 -27.83124,19.05938 -0.06,-1.28 1.26093,-3.67907 -1.03907,-3.13907 -7.88,14.02 -21.49093,23.40031 -31.01093,36.22031 -1.36,1.59 -2.75907,3.14907 -4.23907,4.63907 -2.29,4.99 3.48031,-0.46969 4.92031,-2.02969 14.76,-16 28.90907,-34.95062 50.88907,-41.14062 3.54,-0.93 15.21093,-7.96969 13.71093,0.37031 2.71,-0.8 5.73938,-1.68969 6.30938,1.97031 -4.75,0.26 -9.00969,2.5 -13.77969,1 -1.55,3.99 6.11,10.30969 3.2,3.12969 4.46,-0.74 9.07031,-1.88938 13.67031,-2.00938 1.68,-0.02 3.39969,-0.29093 4.32969,-1.86093 -1.33,-1.75 -8.64969,-2.47 -4.92969,-5.1 2.34,0.13 4.61876,0.69062 6.96876,0.84062 -2.85,-5.28 -11.56938,1.10062 -12.45938,-5.95938 -5.88,0.19 -11.17031,3.21969 -16.92031,4.02969 5,-6.15 12.96,-9.10969 18.35,-14.87969 2.71,-4.7 4.36093,-9.95124 6.06093,-15.08124 1.62,-4.25 2.67938,-8.72 2.60938,-13.3 2.51,-2.68 4.43062,-5.93 4.19062,-9.75 -1.35,-2.61 -2.51031,-5.34907 -3.07031,-8.23907 2.28,1.47 3.39,3.99938 4.8,6.20938 1.76,-6.31 3.13,-12.73969 4,-19.22969 1.26,-3.735 0.81047,-5.47875 -1.17656,-5.4 z m -34.45313,12.52969 c -0.06,0.73 -0.18062,2.19093 -0.24062,2.91093 -0.53,2.6 2.23938,10.72876 -2.09062,7.26876 -5.32,-3.96 -4.60876,7.59062 -5.56876,8.39062 -4.63,-1.79 -2.27124,1.70062 -1.48124,4.44062 -0.04,3.59 5.14031,11.63969 6.27031,4.77969 2.46,-3.25 4.11031,-6.60031 3.07031,-11.02031 3.97,-0.25 2.02969,-6.70969 3.67969,-8.87969 -0.25,-2.65 -0.37907,-5.21 -0.73907,-7.8 -0.72,-0.02 -2.17,-0.0606 -2.9,-0.0906 z m 37.92969,0.5 c -3.06,4.41 -4.20969,9.66969 -5.87969,14.67969 -0.83,2.79 -2.40062,6.50062 -0.0906,8.94062 2.72,-4.01 7.78031,-4.38031 10.17031,-8.77031 3.7,-0.73 1.07031,5.13969 1.72031,7.47969 -2.07,7.58 6.62876,5.94031 11.71876,6.27031 -1.58,4.22 7.89,1.09062 7.9,-1.95938 -1.94,-5.79 6.97124,-5.52 8.68124,-9.6 -3.75,1.51 -4.92062,-1.61969 -6.29062,-4.42969 -3.89,0.33 -7.71969,-1.19093 -10.67969,2.18907 0.68,-3.36 -0.36,-7.66938 -4.05,-8.45938 -0.14,2.7 0.88938,7.08031 -2.89062,6.37031 0.19,-2.16 1.44969,-4.98093 -1.02031,-6.26093 1.01,3.7 -4.91,9.40093 -5.75,3.46093 -6.3,1.57 1.92093,-8.48093 -3.53907,-9.91093 z m -31.03906,9.92187 c -0.47646,0.0218 -1.18343,0.31969 -2.20156,0.98906 -1.26,5.97 -1.64031,11.99876 -3.32031,17.71876 1.61,-2.42 3.17,2.17062 4.7,0.14062 2.74,-3.68 7.56031,-7.05969 6.82031,-12.22969 -2.06,0.1 -4.05969,0.55938 -6.07969,0.85938 -0.10562,-2.48625 2.14589,-7.57267 0.0812,-7.47813 z m 80.75313,1.58594 c -0.19561,-0.003 -0.40407,6.3e-4 -0.625,0.0125 -6.04,4.45 -8.31969,12.61969 -15.27969,16.72969 4.11,0.29 8.44969,0.55969 12.22969,2.37969 -3.88,3.61 -6.56907,7.66 -3.18907,12.8 1.82,-0.58 3.61938,-0.47 4.95938,1.05 3.33,3.18 7.08093,-2.78876 2.96093,-4.76876 -4.3,-5.33 8.00907,-1.39031 5.83907,-6.77031 0.19,-3.99 5.59031,-3.92 8.32031,-5.55 1.03,-6.29 -7.56031,-3.88031 -10.97031,-2.02031 2.76,-8.27 -1.68907,-3.88969 -4.13907,-2.92969 0.13563,-3.60375 5.95764,-10.83017 -0.10624,-10.93281 z m -101.575,12.94219 c 1.11,5.67 -4.02876,7.72031 -7.36876,10.97031 -2.67,1.21 -1.56124,-2.62969 -2.18124,-4.07969 -2.11,1.17 -0.62907,5.66969 -3.68907,4.57969 -3.55,-0.5 0.74938,6.52031 -1.89062,7.77031 -2.37,2.01 -6.96938,0.52031 -6.60938,5.07031 l 0.20938,0.9 c 4.59,1.54 9.18,4.25938 14.15,3.20938 1.09,0.82 1.16,2.21938 1.45,3.45938 0.99,12.11 3.38031,-1.60938 2.42031,-5.55938 -0.13,-0.51 -0.39969,-1.52969 -0.52969,-2.02969 5.82,-1.07 2.67,-9.76093 4.1,-13.51093 3.33,1.69 -0.52062,7.3 1.65938,8.1 6.25,-2.37 -1.71907,4.05031 -1.53907,7.22031 -6.17,10.26 16.55876,0.32969 6.51876,-1.62031 1.02,-3.37 3.13093,-6.52 3.01093,-10.15 -2.05,-3.15 -6.39062,3.65 -6.39062,-1.95 -3.31,-3.9 4.07969,-11.78969 -3.32031,-12.37969 z m 49.98124,2.35156 c -1.04724,0.005 -2.33812,0.29937 -3.88124,0.97813 -1.53,0.81 -5.5,5.63031 -1.65,4.37031 3.6,-1.38 -1.45938,4.32093 1.54062,5.21093 2.75,2.85 7.53,3.15876 4.85,-1.73124 3.66438,-3.40438 3.67869,-8.8479 -0.85938,-8.82813 z m 40.87344,3.59062 c -2.30215,0.0116 -5.87031,1.32344 -6.81406,0.29844 -5.17,4.38 7.59,0.56031 8.75,1.87031 0.37125,-1.71375 -0.55465,-2.17572 -1.93594,-2.16875 z m -77.85468,1.31875 c -2.56,3.56 -1.58938,8.71938 -2.20938,13.00938 2.75,-2.54 5.90938,-12.65938 2.20938,-13.00938 z m 67.94062,0.86876 c -7.94,1.52 -18.71062,1.51124 -24.44062,7.83124 5.13,-1.03 10.24093,-5.12124 15.51093,-3.18124 -4.32,0.77 -2.51062,4.27093 -0.94062,6.86093 2.65,-1.45 5.24062,-0.0306 7.79062,0.90938 -4.59,1.33 -9.06969,3.04031 -13.77969,3.92031 -3.55,2.65 3.51,7.61 6.7,5.8 -2.01,-2.55 0.86938,-2.16938 2.80938,-2.35938 -2.03,-4.77 3.77938,-1.16093 6.30938,-1.56093 3.13,-2.09 3.04062,-7.70907 8.69062,-4.78907 2.64,-0.42 2.69,-1.26 0.15,-2.5 -5.41,-2 -10.86062,-3.72 -16.24062,-5.8 -2.68,-4.97 8.02062,-0.001 7.44062,-5.13124 z m -41.87031,5.13124 c -1.04,2.16 -2.32907,4.32938 -2.38907,6.80938 2.38,-1.5 9.48,-0.23031 9,-4.62031 -2.26,-0.57 -4.31093,-1.87907 -6.61093,-2.18907 z m 16.41406,5.00782 c -0.20007,-0.0121 -0.42813,0.0172 -0.68437,0.0922 -3.71,2.41 -11.36,2.41876 -12.05,7.81876 3.82,0.04 5.71,-7.72 10,-3.05 2.63437,4.53749 5.73544,-4.67981 2.73437,-4.86094 z m 0.33594,11.93125 c 3.5,7.77 -8.13907,5.47031 -9.93907,10.92031 2.02,4 11.13969,2.58031 12.02969,8.02031 -4.33,-1.04 -8.43,-3.01 -12.95,-3.2 2.45,4.43 1.81969,8.86938 -1.72031,12.45938 1.85,4.6 8.42031,2.39 9.17031,7.95 -1.06,10.81 7.94907,-0.53938 6.53907,-4.40938 -4.02,-5.57 6.96062,-0.30031 7.64062,-3.77031 -0.34,-4.1 -2.87969,-7.35031 -5.02969,-10.67031 2.88,-4.09 -4.78062,-4.54031 -4.74062,-8.17031 4.63,-2.32 9.26969,0.71031 13.97969,0.92031 -0.66,-1.42 -1.42876,-2.79031 -2.21876,-4.12031 -4.22,-2.5 -7.42093,-6.06969 -12.76093,-5.92969 z m -54.82813,3.99531 c -0.27189,-0.0148 -0.58781,0.008 -0.95156,0.075 -1.11,3.65 -3.60938,7.03062 -3.25938,10.99062 2.475,-1.95 8.28928,-10.84322 4.21094,-11.06562 z m 35.9125,1.7375 c -0.59172,-0.0302 -1.25968,0.0706 -1.90468,0.32812 -2.94,2.25 -0.009,3.73876 2.58124,2.71876 2.19751,-1.695 1.0986,-2.95641 -0.67656,-3.04688 z"
     id="path4024"
     style="fill:#113728;fill-opacity:1"
     inkscape:connector-curvature="0" />
  <path
     d="m 311.7,417.15938 c 1.84,2.89 5.01,5.83031 -0.7,5.02031 1.9,2.66 7.01969,3.88031 9.12969,7.67031 -3.45,-1.42 -6.54969,-0.36 -9.02969,2.25 4.98,5.42 -5.16938,1.61969 -1.95938,-3.32031 -0.85,-3.75 -4.27062,-5.75938 -7.19062,-7.80938 -1.93,1.11 -3.84969,2.25031 -6.12969,1.37031 -5.8,-1.26 4.84938,5.22 -0.79062,4.75 -2.66,2.09 4.64062,2.95876 6.09062,4.86876 5.49,2.63 0.83907,3.18093 -2.86093,2.11093 -2.18,2.42 -4.32907,4.93969 -7.38907,6.27969 2.72,0.95 3.85938,2.80031 4.30938,5.47031 3.79,-0.95 9.37969,1.69 10.57969,-3.95 0.65,-4.85 7.01093,-6.88 4.41093,-0.95 7.35,6.52 11.96907,-9.60093 16.78907,-2.41093 -6.9,1.92 -0.91938,2.42093 1.99062,5.01093 -4.74,0.66 4.93938,4.13969 1.15938,5.27969 -2.84,0.97 -9.59938,-1.62 -7.45938,3.25 -4.85,-2.35 -5.99062,1.09031 -1.89062,3.87031 -4.23,4.08 3.26062,4.32938 6.39062,5.70938 3.53,-0.03 4.59031,-4.50031 7.57031,-5.62031 3.42,10.1 8.44938,19.62 11.50938,29.85 -2.68,-2.32 -9.69969,-3.19938 -7.52969,-8.00938 2.24,-6.06 -2.48969,-10.55938 -6.72969,-13.80938 -3.97,3.03 -8.65093,0.1 -13.11093,-0.05 1.15,3.45 3.68093,6.21907 4.31093,9.83907 3.39,1.49 6.01938,2.79062 6.05938,6.89062 7.11,1.04 12.29969,6.05031 17.52969,10.52031 1.5,2.96 -2.40969,1.54876 -3.77969,0.76876 -12.1,-7.16 -22.68031,-16.56938 -33.07031,-25.95938 2.68,-2.55 6.44124,-4.86031 6.73124,-8.87031 -2.49,-3.27 0.61,-7.79938 -1.6,-11.05938 -3.16,3.45 -4.83,-0.14031 -6.25,-3.02031 -3.74,2.03 -3.37062,10.59938 -8.84062,8.05938 0.14,1.96 0.57938,3.89062 0.90938,5.84062 -2.03,-0.98 -4.16907,-1.59938 -6.43907,-1.55938 -1.56,-4.25 -6.05,-4.99124 -3.55,2.66876 -5.12,-1.39 -3.57,-4.78907 -0.35,-7.43907 -0.68,-3.03 1.4,-6.99093 -1.55,-9.06093 -2.14,2.38 -2.91969,-1.75 -4.67969,-2.65 -2.2,2.86 -3.83062,6.06062 -2.29062,9.64062 -2.15,-0.73 -3.38062,-0.10031 -3.29062,2.32969 -4.44,-0.85 -7.10907,-12.70969 -6.93907,-3.77969 -1.91,-0.63 -2.96093,-2.52062 -4.76093,-3.34062 0.54,3.62 0.80062,7.24031 0.24062,10.87031 2.57,2.74 5.84938,5.03969 9.90938,4.62969 -1.67,2.2 -3.89907,3.92124 -6.78907,3.88124 1.17,2.4 0.60031,5.81969 4.37031,4.97969 -0.58,1.62 -1.28031,3.18907 -1.82031,4.83907 1.81,-0.3 3.59969,-1.78876 5.42969,-1.31876 2.02,0.32 4.58062,3.43876 5.89062,0.56876 4.12,-3.97 -2.91031,-8.70907 -0.32031,-13.38907 4.98,0.6 1.83907,6.17907 6.73907,6.48907 -4.71,5.93 7.60124,-0.54876 9.63124,1.68124 -2.72,2.06 -6.65031,7.51 -9.87031,3.3 -2.83,0.55 1.08907,4.49876 -2.01093,4.41876 -1.53,2.5 -2.70938,5.29062 -1.50938,8.19062 -2.97,-1.98 -6.14062,-3.80062 -7.84062,-7.09062 2,9.1 -0.35938,5.22124 -1.90938,3.23124 -1.01,-0.54 -3.99062,-3.52031 -3.99062,-1.42031 1.29,2.45 4.08,5.33969 0.9,7.52969 3.48,4.04 7.35031,7.11938 13.12031,5.00938 -4.06,3.32 -9.91969,7.34093 -2.52969,10.36093 -1.57,5.74 1.17969,2.89 4.97969,3.75 2.56,-1.05 5.13,1.23938 6.65,-2.14062 -0.75,-5.08 -4.40907,-9.52969 -3.18907,-14.87969 1.95,-1.95 8.73876,-6.89969 6.21876,-1.02969 3.74,-3.7 8.28093,2.03907 10.11093,-3.91093 1.94,-3.33 -5.68093,-13.63907 1.18907,-11.98907 9.59,8.67 20.39031,16.43 29.27031,25.65 -1.87,2.61 -9.80969,0.78969 -13.97969,1.82969 -6.06,1.05 6.93938,-5.98 1.20938,-5.95 -1.89,-0.49 0.18124,-3.56031 -0.16876,-5.07031 -1.72,0.64 -3.09093,1.87 -4.61093,2.85 -1.95,-2.92 -3.44938,-7.37969 -7.35938,-7.77969 0.08,2.27 0.67,4.48031 1.05,6.72031 -3.52,-1.37 -1.22,2.50907 -1.05,4.38907 -1.37,-1.01 -2.68031,-2.08938 -4.07031,-3.05938 0.21,2.06 0.63031,4.09062 0.97031,6.14062 -4.49,-1.95 -7.36969,-6.50124 -9.72969,-9.08124 1.63,11.19 -3.35093,-0.31969 -7.21093,-0.12969 1.91,5.46 2.68969,10.78062 5.12969,16.09062 2.74,0.17 5.50093,0.24907 8.26093,0.23907 -2.95,2.46 -6.32,5.51093 -10.45,4.01093 1.23,2.16 3.99,2.32907 2.3,5.63907 5.68,-2.5 3.44907,2.66 0.83907,5.3 3.75,-1.29 7.65124,-1.97969 11.63124,-1.77969 0.07,4.9 4.61,0.0809 6.15,-1.68907 0.44,-3.52 -3.41093,-6.62 -1.76093,-10.45 2.96,-2.49 7.08031,-2.54124 10.67031,-3.58124 5.77,0.19 11.55062,0.28093 17.34062,0.31093 1.53,1.61 1.98876,3.76031 2.11876,5.92031 3.26,3.78 8.49062,1.62876 12.74062,1.26876 2.41,-1.38 4.95938,-2.68938 6.85938,-4.75938 0.5,-3 2.86093,-7.66031 -0.83907,-9.22031 -13.15,2.05 -8.53031,-12.83 -2.57031,-17.85 4.31,-2.68 8.81031,-5.59969 10.37031,-10.77969 -3.63,-0.84 -2.7,-5.08 -3.7,-7.9 -4.59,3.82 -10.33031,-13.42 -9.22031,1.5 -5.36,-4.87 -6.30031,5.36938 -3.72031,8.70938 -3.98,-4.1 -9.14,-5.10907 -14.2,-6.63907 2.59,7.45 7.74969,16.55907 17.27969,13.98907 -2.28,4.02 -4.10969,8.25 -5.52969,12.65 -2.7,-0.08 -3.56938,-3.52876 -5.20938,-5.26876 -4.35,-8.77 -9.66,-17.78124 -10.4,-27.73124 5.01,-0.06 12.01031,6.59062 15.62031,0.84062 2.91,-6.51 12.09907,-7.16969 17.23907,-2.87969 3.1,1.75 6.52062,1.37031 8.99062,-0.97969 -1.8,-3.73 -1.56093,-7.95124 0.0891,-11.68124 -4.75,1.5 -7.36,0.82124 -3.85,-3.81876 -2.9,1.27 -5.17938,0.14876 -6.90938,-2.28124 -1.61,2.98 -3.31062,5.92093 -5.99062,8.11093 0.21,-2.67 0.56062,-5.39031 0.74062,-8.02031 -4.06,-0.74 -6.61,-4.34 -11,-3.95 -2.04,-1.06 -3.99,-2.3 -6.1,-3.2 -0.34,2.45 1.44062,3.97062 3.29062,5.19062 5.65,3.04 -5.60062,-0.45124 -2.29062,4.01876 1.1,1.33 2.18031,2.68062 3.32031,3.99062 2.53,1.99 2.82938,6.79 -1.29062,6.65 -3.56,1.47 0.50969,-4.05 -2.77031,-4.3 -0.77,-0.53 -1.47,-1.13969 -2.1,-1.82969 -0.54,1.11 -0.99907,2.29907 -1.83907,3.23907 -0.95,1.21 -2.00062,2.35 -3.09062,3.45 -1.73,2.06 -3.06907,-1.34876 -1.28907,-2.41876 0.57,-2.76 0.06,-5.37 -2.95,-6.15 -2.71,-2.38 -8.10124,-0.37093 -9.08124,-4.81093 3.94,0.04 7.60093,1.57062 11.41093,2.34062 1.03,-1.3 3.42,-2.59093 2.2,-4.51093 -3.64,0.5 -1.93093,-5.46907 -0.36093,-7.23907 l -0.15,-0.74062 c -0.94,0.47 -1.86938,0.95093 -2.80938,1.41093 -3.56,2.42 -2.81031,-3.93124 -6.87031,-2.38124 -1.84,1.93 -6.04907,8.69 -4.48907,-0.5 -4.05,-3.92 -10.20062,-2.75 -14.99062,-5.25 z"
     id="path4046"
     style="fill:#113728;fill-opacity:1"
     inkscape:connector-curvature="0" />
  <path
     d="m 365.92,494.18 c 3.21,-1.92 6.32,-4.04 9.78,-5.51 3.1,0.19 6.17,0.19 9.31,0.38 0.88,0.42 1.78,0.82 2.69,1.21 7.03,3.11 15.84,5.09 19.17,12.93 1.26,3.27 3.76,7.65 1.06,10.77 -1.74,2.88 -5.31,4.66 -6.05,8.1 9.26,-0.92 10.02,-11.42 10.05,-18.58 7.67,4.81 17.4,14.5 9.92,23.56 5.58,0.81 6.43,-6.22 5.26,-10.19 6.14,7.19 12.85,13.96 17.81,22.09 0.87,2.32 2.17,4.48 3.96,6.23 2.43,5.18 -1.15,10.6 -3.96,14.88 5.15,0.61 6.2,-5.75 8.66,-8.93 5.49,4.47 1.8,11.34 -1.65,15.99 4.2,-0.75 8.21,-4.29 7.39,-9.06 3.58,3.27 7.13,6.56 10.72,9.84 5.37,5.06 3.39,11.43 0.92,17.19 -0.68,3.41 -2.86,7.02 -6.93,6.93 -10.12,2.53 -18.45,-5.01 -26.77,-9.27 -10.02,-5.3 -19.37,-11.81 -28.48,-18.48 5.37,0.26 15.46,1.5 17.32,-5.33 -7.32,1.74 -15.04,4.58 -22.44,1.37 -4.67,-2.85 -9.06,-6.16 -12.92,-10.02 5.61,-0.37 17.66,-0.19 18.28,-7.37 -6.85,3.7 -14.71,5.15 -22.73,3.62 -9.84,-9.59 -22.1,-20.72 -22.33,-35.53 1.24,-4.25 6.72,-6.35 7.15,-11.16 -1.86,0.6 -2.99,2.27 -4.35,3.56 0.5,-3 2.86,-7.66 -0.84,-9.22 z"
     id="path4154"
     inkscape:connector-curvature="0"
     style="fill:#874f15" />
  <path
     d="m 347.16,506.89 c 3.26,3.78 8.49,1.63 12.74,1.27 0.51,17.29 13.36,30.6 25.48,41.41 22.03,18.73 46.06,35.61 72.53,47.44 -0.24,0.34 -0.71,1.02 -0.95,1.36 -7.39,-2.28 -14.34,-5.92 -21.94,-7.5 -1.87,-1.23 -3.83,-2.29 -5.89,-3.13 -26.63,-10.92 -51.01,-26.67 -73.35,-44.67 -0.95,-0.65 -1.92,-1.26 -2.88,-1.86 -3.08,-3.88 -6.03,-7.84 -9.19,-11.63 -2.39,-7.79 -2.99,-16.72 3.45,-22.69 z"
     id="path4184"
     inkscape:connector-curvature="0"
     style="fill:#86521c" />
  <path
     d="m 573.80938,510.12031 c 1.07,3.71 6.58031,4.51907 7.17031,8.88907 -2.38,5.08 -10.40031,0.73 -15.12031,1 2.8,4.34 10.32124,3.51124 13.03124,7.03124 -2.6,2.96 -7.23062,6.19876 -6.94062,11.06876 3.61,-2.72 6.73062,-6.32907 10.99062,-8.03907 3.48,2.51 3.75969,10.86 9.07969,10.95 -0.22,-3.45 -1.45093,-6.73093 -2.01093,-10.11093 3.46,1.06 6.50031,3.26124 10.02031,4.18124 0.36,-4.3 -5.13969,-6.52031 -4.87969,-10.87031 2.27,-3 6.97062,-3.21062 8.94062,-6.14062 -5.29,-0.46 -10.57031,0.26062 -15.82031,0.64062 -3.71,-4.48 -9.37093,-6.24 -14.46093,-8.6 z m 13.06406,10.77187 c 1.76859,10e-4 3.60594,0.80595 3.03594,2.89844 -1.74,3.22 -8.64907,0.16 -4.68907,-2.65 0.48251,-0.16 1.06359,-0.2489 1.65313,-0.24844 z"
     id="path4192"
     style="fill:#113728;fill-opacity:1"
     inkscape:connector-curvature="0" />
  <path
     d="m 567.79218,514.47969 c -4.65634,-0.16885 -10.49843,1.88749 -13.99218,3.1 -5.72,2.28 -11.95,3.9 -16.5,8.3 -5.86,5.15 -8.71938,12.54062 -10.35938,19.99062 -1.75,24.97 12.48938,50.63 36.05938,60.05 23.22,7.05 54.41031,-2.67031 62.27031,-27.62031 2.98,-9.58 1.91938,-19.86938 -0.0906,-29.50938 C 621.58969,538.44062 614.21,529.92 603.65,526.4 c -5.9,-2.27 -0.53969,7.14062 -0.12969,10.04062 2.36,10.01 -6.02969,1.10876 -8.47969,-1.73124 -0.8,4.43 0.68938,8.71031 0.90938,13.07031 -7.9,5.58 -15.96031,-5.20907 -14.17031,-12.83907 -4.88,1.64 -5.33,10.89938 -12.8,8.10938 -7.33,-1.22 -4.45938,-12.04031 1.19062,-14.17031 -2.83,-4.78 -11.26031,-4.02 -12.22031,-10.2 5.38,-0.52 10.76969,-0.65969 16.17969,-0.82969 -1.17751,-2.36625 -3.54369,-3.269 -6.33751,-3.37031 z M 555.24687,529 c 1.74508,-0.11266 0.29251,3.73313 0.0125,5.15938 -1.33,7.02 -7.23907,11.49124 -12.23907,16.03124 -0.91,-8.48 4.82031,-16.11124 11.27031,-20.88124 0.39251,-0.19625 0.70696,-0.29328 0.95625,-0.30938 z m 61.82344,56.97031 c -3.66,8.3 -12.43062,13.7 -21.09062,16.1 3.61,-7.11 15.53969,-7.75 19.27969,-15.9 0.45,-0.05 1.36093,-0.15 1.81093,-0.2 z"
     id="path4198"
     style="fill:#691717;fill-opacity:1"
     inkscape:connector-curvature="0" />
  <path
     d="m 784.94,528.95 c -0.25,-4.81 9.28,-2.58 4.82,0.86 -9.52,8.65 -20.39,17.38 -23.9,30.36 -6.3,-3.42 -11.57,-8.88 -12.94,-16.06 0.78,-0.04 2.33,-0.11 3.1,-0.14 11.41,2.94 21.98,-6.88 28.92,-15.02 z"
     id="path4216"
     inkscape:connector-curvature="0"
     style="fill:#1a2f24" />
  <path
     d="m 418.21,528.14 c 4.11,-1.77 3.41,3.94 -0.11,3.75 -1.34,-0.94 -1.49,-2.99 0.11,-3.75 z"
     id="path4220"
     inkscape:connector-curvature="0"
     style="fill:#a67e52" />
  <path
     style="fill:#000000;fill-opacity:1"
     d="m 818.62184,540.01875 c -4.75392,0.0616 -9.43432,0.82656 -13.91248,2.65156 -5.93997,6.32 2.25128,12.45938 8.18128,13.60938 7.1,-0.27 14.27936,-0.69031 21.35936,0.42969 7.11,0.63 14.14032,2.98093 19.82032,7.41093 1.37,7.81 -6.94064,11.8 -12.19064,15.85 -20.44,12.08 -41.64032,23.45 -64.8703,29.1 -31.64,8.12 -64.37969,9.88 -96.72969,13.3 -3.43,0.93 -7.06969,0.46938 -10.52969,0.40938 -0.62,0.13 -1.85031,0.38093 -2.47031,0.51093 -4.13,0.89 -8.42031,0.42907 -12.57031,0.38907 -1.5,0.19 -2.98876,0.41 -4.46876,0.6 -5.47,0.94 -11.02093,0.55062 -16.51093,0.44062 -1.15,0.21 -2.29969,0.43 -3.42969,0.65 -6.12,1.29 -12.45,0.38938 -18.6,0.25938 -2.49,0.19 -4.95938,0.42 -7.40938,0.7 -24.37,1.26 -49.10031,1.07031 -73.52031,-0.0797 -2.9,-0.22 -5.69062,-0.28 -8.54062,-0.45 -5.15,0.35 -10.35938,0.15 -15.45938,-0.6 -1.59,-0.1 -3.19031,-0.19062 -4.77031,-0.24062 -5.09,0.14 -10.20969,-0.04 -15.22969,-0.75 -1.52,-0.16 -3.04,-0.32876 -4.55,-0.46876 -0.77,0.1 -2.30031,0.30938 -3.07031,0.40938 -2.48,-0.3 -4.94062,-0.62969 -7.39062,-0.97969 -4.83,-0.59 -9.65876,-1.24093 -14.51876,-1.36093 -2.83,0.01 -5.70031,-0.38938 -8.47031,-0.65938 -3.86,-0.4 -7.68969,-0.85 -11.52969,-1.25 -2.83,-0.1 -5.70124,-0.43031 -8.48124,-0.67031 l -0.95,-0.0891 c -2.68,-0.21 -5.41,-0.61062 -8.05,-0.89062 -4.27,-0.5 -8.46969,-1.55 -12.72969,-2.1 -4.77,-0.5 -9.51,-1.09969 -14.25,-1.82969 -27.01,-3.31 -53.94969,-9.02062 -79.42969,-18.69062 -6.46,-2.34 -12.80938,-5.46969 -17.65938,-10.42969 -3.26,-1.26 -4.76124,-4.55031 -6.78124,-7.12031 -3.92,-8.53 4.17,-15.21938 11.45,-17.65938 5.73,-2.71 12.67031,-3.25031 17.52031,-7.57031 -3.35,-6.08 -12.57031,-4.41031 -18.27031,-2.27031 -7.56,2.27 -12.86876,8.24093 -18.51876,13.36093 -1.6,2.21 -3.12124,4.48907 -4.43124,6.88907 0.07,1.8 0.20093,5.4 0.26093,7.2 l 0.6,1.07969 c 7.29,13.77 19.17969,24.33062 29.57969,35.69062 14.22,12.92 29.43938,24.97062 44.65938,36.49062 1.76,0.21 3.21031,1.28938 4.02031,2.85938 2.7,2.46 5.88,4.29062 9.15,5.89062 1.38,0.23 2.62093,1.47969 2.06093,2.97969 l 0.92969,0.009 c 1.43,0.06 3.08907,-0.28 4.23907,0.85 8.43,6.35 17.95124,11.01969 26.78124,16.77969 8.62,4.99 17.03,10.58093 26.2,14.46093 -7.55,-8.55 -17.55062,-14.59062 -25.99062,-22.24062 -3.8,-2.44 -7.38938,-5.19 -11.10938,-7.75 -4.12,-3.28 -8.14124,-6.71938 -12.28124,-9.95938 -3.28,-1.67 -6.43,-3.7 -7.95,-7.2 -12.64,-6.66 -24.56876,-16.87031 -33.56876,-28.27031 -0.93,-5.26 7.74907,-1.24969 10.33907,-1.22969 33.46,8.08 67.23093,15.00031 101.46093,18.87031 2.14,-1.35 4.45969,-1.26031 6.92969,0.27969 3.05,0.47 6.23031,0.61031 9.12031,1.87031 2.48,-0.43 5.05876,-0.44093 6.91876,1.53907 0.29,-0.52 0.88124,-1.54938 1.18124,-2.05938 3.72,1.29 7.66876,1.16938 11.56876,1.25938 4.5,-0.19 9.01031,-0.25969 13.47031,0.57031 1.51,0.13 3.03,0.27969 4.55,0.42969 7.39,-0.09 14.92031,-0.97031 22.22031,0.77969 9.29,0.21 18.61938,-0.45969 27.90938,0.22031 2.52,2.04 5.94093,-0.0697 8.91093,0.27031 11.04,-1.24 22.20938,-0.22 33.30938,-0.35 l 0.75,-0.25938 c 9.75,-2.72 20.34,-6.2e-4 30.35,-0.64062 2.47,-0.22 4.96031,-0.42938 7.47031,-0.60938 6.35,-0.29 12.81938,-0.61093 19.15938,0.0891 0.93,-0.38 1.88,-0.72969 2.85,-1.02969 4.65,-1.75 9.74031,-0.13062 14.57031,-0.39062 0.61,-0.15 1.83062,-0.45938 2.44062,-0.60938 3.42,-1.11 6.97031,-0.58969 10.52031,-0.47969 0.4,-0.07 1.2,-0.22062 1.6,-0.29062 3.74,-0.73 7.53907,-0.96938 11.38907,-0.70938 14.65,-1.73 29.3,-3.50093 43.95,-5.16093 2.6,-0.31 5.18031,-0.80907 7.77031,-1.23907 5.23,-1.22 10.57938,-1.93031 15.80938,-3.22031 3.14,-0.89 11.92093,-1.56062 5.86093,1.50938 -7.9,5.66 -15.83969,11.26093 -23.77969,16.86093 -3.58,3.41 -8.67031,4.46969 -12.07031,7.87969 -19.02,13.03 -38.94093,25.36 -60.71093,33.3 -6.39,4.24 -14.19,5.60031 -21.7,6.12031 -3.96,2.41 -8.75969,2.35969 -13.22969,2.87969 -3.63,1.28 -7.43031,1.86 -11.27031,1.55 -2.22,0.41 -4.38969,1.02968 -6.57969,1.57968 -2.72,0.83 -5.65938,0.42 -8.40938,0.6 l -0.74062,0.25 c -2.93,1.46 -6.32031,0.59032 -9.42031,0.62032 -2.83,0.2 -5.72938,0.12032 -8.50938,0.27032 -1.98,0.34 -3.97031,0.52936 -5.97031,0.50936 -3.08,0.47 -6.26969,0.36968 -9.32969,0.57968 -6.4,0.81 -13.21969,1 -19.47969,-0.8 -2.44,0.24 -4.86969,0.45064 -7.27969,0.64064 -16.27,1.19 -32.85093,1.59032 -49.16093,0.27032 l -0.72969,-0.061 c -2.05,0.4 -4.12938,0.62096 -6.20938,0.66096 -2.71,0.01 -5.41062,-0.0297 -8.09062,-0.12968 -6.56,0.63 -14.34,3.61968 -20,-0.77032 -1.6,1.55 -3.65969,2.24936 -5.87969,2.00936 -1.02,0.65 -2.42,1.22968 -1.9,2.72968 4.58,2.28 9.71907,2.44032 14.63907,3.52032 1.06,0.53 2.08,1.18032 3.1,1.82032 4.75,-3.26 11.05031,0.05 16.32031,-0.3 1.39,0.29 2.72969,0.81936 4.07969,1.30936 2.56,0.06 5.22031,0.34032 7.82031,0.27032 3.02,-0.1 5.92093,0.53 8.91093,1.05 1.99,0.34 3.98938,0.59032 6.00938,0.72032 1.93,-0.02 3.87938,-0.0594 5.80938,0.14064 1.67,0.16 3.31,0.48936 4.95,0.85936 4.99,0.68 11.73062,-2.25968 15.34062,1.87032 9.13,-2.36 18.73031,-0.0997 27.97031,-0.17968 0.62,0.77 1.21907,1.57 1.78907,2.4 5.7,-4.04 13.24031,-1.62032 19.77031,-2.37032 0.32,-0.23 0.94,-0.69096 1.25,-0.91096 4.23,-2.62 9.61,2.42 14.2,-0.65 2.26,-0.64 4.68062,-1.62904 6.99062,-0.53904 1.58,-0.47 3.15031,-1.00032 4.77031,-1.37032 4.3,-0.91 8.71907,-1.01968 13.08907,-0.52968 6.42,-3.32 13.79,-3.87968 20.8,-5.12968 4.19,-1.87 8.56031,-3.17128 13.17031,-3.58128 3.25,-1.01 6.68,-3.67936 10.15,-2.10936 1.6,-0.82 3.18031,-1.66936 4.77031,-2.50936 9.33,-4.21 19.01938,-7.68033 28.15938,-12.37033 1.93,-0.51 4.26969,-2.72969 6.27969,-1.12969 1.88,-2.96 4.67,-5.13031 8.3,-5.27031 2.53,-4.07 7.40031,-5.63062 11.42031,-7.84062 3.73,-3.63 8.32,-6.11 12.7,-8.85 1.33,-1.48 2.60093,-3.05969 4.26093,-4.17969 0.42,-0.26 1.24876,-0.79 1.66876,-1.05 2.14,-1.16 4.16031,-2.54062 6.07031,-4.04062 15.56,-14 34.75061,-24.06969 52.34063,-35.62969 17.38,-10.88 36.72904,-21.76938 46.08904,-40.95938 4.16,-5.39 2.19,-13.89 8.2,-17.95 10.07,-0.97 20.70032,2.47 27.97032,9.55 3.15,3.84 -0.89,7.69938 -3.5,10.10938 -7.96,7.76 -19.79936,9.54 -27.65936,17.4 -0.37,1.52 -0.60096,3.3 1.58904,3 4.49,-0.02 8.96064,-0.0694 13.49064,-0.009 12.6,-3.41 30.42968,-7.69093 33.27968,-22.66093 3.66,-13.82 -12.32032,-23.27938 -24.27032,-22.80938 -3.5,0.33 -7.06936,0.0406 -10.50936,-0.50938 -9.95,-0.3 -20.15,-2.96124 -28.05,-9.23124 -9.80376,-2.86 -20.61944,-6.12609 -31.07816,-5.99063 z m -572.89059,8.78438 c -6.43348,-0.0334 -13.03438,1.36249 -19.08125,2.79687 -5.96,1.53 -12.97062,2.95031 -16.54062,8.52031 -4.42,14.62 8.72093,27.04938 18.96093,35.70938 15.13,6.67 33.09907,3.90969 47.33907,-3.72031 0.11,-1.68 1.39,-4 -0.65,-4.95 -12.47,-4.69 -26.03938,-0.54969 -38.90938,-2.82969 -1.12,-0.06 -2.14031,-0.39907 -3.07031,-1.03907 -6.92,-2.67 -14.32,-10.06093 -14.2,-17.66093 10.91,-9.32 29.82031,-3.76 40.52031,-13.5 -4.4625,-2.41063 -9.36493,-3.30063 -14.36875,-3.32656 z"
     id="path4232"
     inkscape:connector-curvature="0" />
  <path
     d="m 745.8,542.72969 c -16.65,2.85 -26.86938,18.63969 -41.95938,25.12969 -9.05,4.73 -18.53031,8.98 -28.72031,10.5 -11.46,3.1 -23.60969,3.92 -35.42969,2.85 11.08,8.77 23.55969,16.94124 38.07969,17.98124 2.58,0.31 5.30938,0.71 7.95938,1.05 5.83,-0.17 11.73093,-0.10124 17.56093,-0.88124 17.27,-3.09 34.94969,-7.87907 48.72969,-19.33907 5.24,-4.65 11.99969,-9.87031 12.27969,-17.52031 -7.18,-4.59 -11.42938,-11.73 -14.35938,-19.5 -1.39,-0.14 -2.77062,-0.23031 -4.14062,-0.27031 z m -1.69844,7.89844 c 1.31562,0.0172 2.29531,0.74062 2.93906,2.17187 -7.9,0.78 -14.27124,5.17969 -19.33124,10.92969 -2.28,1.26 -1.8,-1.03969 -1.55,-2.52969 4.05,-4.6 9.34093,-8.06062 15.21093,-9.84062 1.03125,-0.49876 1.94187,-0.74156 2.73125,-0.73125 z m -36.63594,37.32812 c 0.83129,0.0788 0.5504,1.65117 0.44376,2.79375 -7.26,1.45 -14.35938,4.09969 -21.90938,3.32969 -2.19,-0.26 -8.52,1.34969 -8.1,-3.02031 9.51,-0.51 19.52031,1.60031 28.42031,-2.67969 0.40687,-0.25687 0.72152,-0.38703 0.96407,-0.41875 0.0657,-0.009 0.12583,-0.01 0.18124,-0.005 z"
     id="path4238"
     style="fill:#691717;fill-opacity:1"
     inkscape:connector-curvature="0" />
  <path
     d="m 877.75,555.24 c 3.52,-0.3 6.99,-0.12 10.51,0.51 -3.5,0.33 -7.07,0.04 -10.51,-0.51 z"
     id="path4256"
     inkscape:connector-curvature="0"
     style="fill:#404141" />
  <path
     d="m 470.04,567.89 c 3.87,3.38 7.82,6.66 11.88,9.81 l 0.52,0.41 c 7.22,6.55 15.79,11.93 21.44,20.05 0.49,0.93 1,1.87 1.52,2.81 -3.64,8.61 -16.5,3.1 -23.39,1.87 2.23,-3.81 9.08,-5.22 5.92,-12.08 -2.47,1.92 -1.78,5.89 -4.68,7.49 -4.67,2.79 -10.54,1.81 -15.26,-0.39 -2.36,-0.89 -7.58,-2.52 -2.26,-3.35 5.76,2.23 11.95,-15.96 5.23,-9.43 2.47,-5.76 4.45,-12.13 -0.92,-17.19 z"
     id="path4266"
     inkscape:connector-curvature="0"
     style="fill:#7f501d" />
  <path
     d="m 865.76,601.23 c 4.49,-0.02 8.96,-0.07 13.49,-0.01 -4.29,1.74 -9.12,0.64 -13.49,0.01 z"
     id="path4304"
     inkscape:connector-curvature="0"
     style="fill:#383c3a" />
  <path
     d="m 384.12969,629.92031 c -8.2,1.7 -14.46031,10.15 -16.32031,18.05 1.52,3.5 4.67,5.53 7.95,7.2 -0.18,-9.29 4.25031,-17.33 8.37031,-25.25 z m 360.82031,0.9 c -2.59,0.43 -5.17031,0.92907 -7.77031,1.23907 -3.97,6.6 -6.46938,14.01062 -6.40938,21.79062 3.4,-3.41 8.49031,-4.46969 12.07031,-7.87969 -4.39,-2.47 1.31938,-10.88 2.10938,-15.15 z m -280.07031,8.44531 c -0.91488,-0.0397 -1.85907,0.0638 -2.78907,0.225 -11.68,19.64 6.18938,41.79969 1.85938,62.4297 5.66,4.39 13.44,1.40032 20,0.77032 -0.53,-7.99002 4.19,-14.81064 5.4,-22.44064 1.87,-11.4 0.56031,-27.95062 -12.37969,-32.24062 1.21,3.39 2.56938,6.76093 3.80938,10.16093 0.03,4.19 2.19969,12.72 -5.42031,9.55 -9.22,-4.92 -9.11,-17.87062 -6.35,-26.69062 -1.16251,-1.23751 -2.60488,-1.69795 -4.12969,-1.76407 z m 175.40469,1.04844 c -3.20376,0.0288 -6.40938,0.18156 -9.58438,0.32656 3.38,0.28 6.69938,0.37907 10.10938,0.53907 -1.4,8.58 -0.28,17.15031 1.55,25.57031 2.83,8.63 4.37,17.59031 6,26.52031 7.51,-0.52 15.31,-1.88031 21.7,-6.12031 1.62,-5.82 2.18124,-11.91031 1.83124,-17.92031 0.75,-8.97 -3.27062,-19.98907 -12.79062,-22.48907 3.05,6.02 5.30938,12.63876 3.05938,19.46876 -12.44,-0.53 -13.92,-15.78969 -12.3,-25.47969 -3.17,-0.35 -6.37125,-0.44438 -9.575,-0.41563 z m -90.375,1.91563 -0.0297,0.79062 c -1.25,8.7 -0.78031,17.31 1.47969,25.8 0.53,1.16 1.04093,2.34 1.61093,3.5 0.64,9.76 5.1,19.03907 2.45,28.98905 6.26,1.8 13.07969,1.61 19.47969,0.8 1.89,-13.14998 9.54938,-26.36874 5.15938,-40.01874 -1.46,-6.64 -5.15876,-13.14093 -12.16876,-15.06093 2.66,6.07 4.53907,12.43093 4.28907,19.16093 -1.62,0.6 -3.33938,0.96 -5.05938,0.85 -8.3,-4.7 -9.92969,-14.81093 -8.27969,-23.41093 L 558.82031,642.5 c -2.97,-0.34 -6.39093,1.76969 -8.91093,-0.27031 z m -163.95,7.62031 c 0.73,4.58 6.92124,13.11969 2.08124,15.27969 3.72,2.56 7.30938,5.31 11.10938,7.75 -1.17,-8.77 -3.14062,-20.41969 -13.19062,-23.02969 z m 374.77031,5.85938 c -1.91,1.5 -3.93031,2.88062 -6.07031,4.04062 -0.42,0.26 -1.24876,0.79 -1.66876,1.05 5.2,0.87 -1.04093,7.81969 -4.26093,4.17969 -4.38,2.74 -8.97,5.22 -12.7,8.85 1.5,8.4 7.39,19.78093 0.7,27.01095 -9.31,1.09 -13.02031,-11.81033 -12.12031,-19.17033 -3.63,0.14 -6.42,2.31031 -8.3,5.27031 -5.9,16.85002 16.24062,26.38938 11.64062,42.10938 -4.48,-4.58 -9.63,-8.42 -14.8,-12.15 -1.61,-3.17 -3.02969,-6.44064 -4.52969,-9.64064 -5.25,0.15 -11.21,1.28032 -14.3,6.02032 -1.72,6.11 -1.25,12.55064 -1.25,18.84064 -0.87,2.93 -4.87,2.20968 -6.45,0.27968 -4.24,-10.21 2.06,-22.65936 -4.75,-31.95936 -1.59,0.84 -3.17031,1.68936 -4.77031,2.50936 -0.95,4.48 2.03969,10.87032 -2.42031,13.92032 -7.4,2.66 -8.03969,-7.40096 -7.72969,-11.81096 -4.61,0.41 -8.98031,1.71128 -13.17031,3.58128 13.92,5.18 14.13031,23.11 13.27031,35.45 -1.67,9.55 -2.88938,19.20872 -3.05938,28.91872 5.21,-0.33 11.31907,0.78032 15.98907,-2.22968 1.18,-6.38 -0.41969,-12.29968 -2.87969,-18.02968 7.52,2.45 9.29062,11.34032 10.24062,18.22032 4.84,0.14 9.64969,-0.24064 14.42969,-1.14064 2.05,-11 2.29031,-22.84936 -0.72969,-33.70936 -0.49,-9.06 -6.44093,-23.73096 5.78907,-27.31096 0.03,1.5 0.0903,4.51096 0.12031,6.01096 -1.41,8.19 4.47969,14.48032 7.97969,21.17032 5.05,10.23 -2.76031,21.81872 0.32969,31.91872 7.31,0.28 14.47062,-1.62872 21.74062,-2.11872 -2.63,-12.02 -9.26969,-28.59064 1.92031,-37.94064 -0.5,5.88 -3.84062,17.02032 4.95938,17.12032 14.68,-6.69 8.75,-26.27 2.3,-37.25 19.82,11.39 12.44,36.00904 10.8,54.28904 5.1,0.14 10.04062,-1.26872 14.99062,-2.31872 0.04,-2.91 -1.66,-5.41032 -2.8,-7.97032 3.54,1.29 5.83,4.24032 8.1,7.07032 6.26,-0.95 12.53969,-2.23032 18.62969,-3.97032 -0.35,-7.3 -1.19062,-14.65032 -2.74062,-21.77032 -0.4,-5.62 -2.08876,-11.16 -1.86876,-16.75 0.74,-4.19 5.28969,-5.74064 6.87969,-9.34064 -13.51,-1.2 -15.11,15.01064 -13.2,25.09064 -3.34,2.83 -6.52969,-1.55936 -7.67969,-4.40936 -1.08,-7.57 0.94938,-15.50128 -1.14062,-22.88128 -0.74,-3.48 -2.9,-6.28968 -5.2,-8.87967 -1.85,-1.17 -3.72062,-2.31969 -5.74062,-3.12969 2.52,7.19 4.36093,14.59 3.91093,22.3 -3.15,3.75 -8.18093,1.40064 -9.46093,-2.70936 -5.98,-18.84002 11.68031,-38.44126 1.07031,-56.63126 z m -106.95,52.93126 c -7.01,1.25 -14.38,1.80968 -20.8,5.12968 2.85,4.99 5.48969,10.43968 3.02969,16.22968 -4.4,-6.3 -12.58876,-8.63 -16.11876,-15.7 -1.62,0.37 -3.19031,0.90032 -4.77031,1.37032 -1.23,8.72 4.76907,15.56968 8.53907,22.72968 1.55,12.61 -3.99907,24.93936 -0.58907,37.55936 1.57,-0.02 3.14031,-0.11936 4.72031,-0.20936 6.71,-0.92 13.50907,-0.68936 20.28907,-0.85936 -1.98,-10.37 -9.19031,-19.51096 -7.82031,-30.76096 0.72,-4.85 0.90093,-13.66968 6.66093,-15.22968 -0.2,5.78 -3.93062,15.68 4.00938,17.1 15.08,-6.66 10.65,-26.39936 2.85,-37.35936 z M 367.92031,663.02969 c 0.59,13.18 7.07907,26.13062 4.48907,39.34063 -4.26,7.69 -12.36876,-1.51096 -13.61876,-7.21094 -1.13,-6.98 1.46938,-13.37876 5.00938,-19.16876 -0.49,-0.06 -1.44969,-0.17124 -1.92969,-0.23124 -3.41,1.33 -6.37,3.62031 -8.75,6.37031 l -1.07969,2.07969 c -4.19,7.53 -3.57031,16.60998 -0.67031,24.44998 3.49,7.7 13.27031,15.18128 8.52031,24.43128 -1.97,-1.76 -3.16,-4.30096 -5.6,-5.51096 -7.22,-3.87 -11.06031,-10.71032 -13.92031,-17.97032 -0.53,5.33 -1.20031,10.67064 -1.37031,16.04064 1.79,4.41 3.43062,8.98064 6.69062,12.59064 5.58,5.65 -3.12031,18.01 5.37969,19.5 4.32,0.49 8.51907,1.65 12.83907,2.15 0.2,-9.54 -1.15,-20.97096 6.4,-28.16096 1.81,5.49 -3.98,11.99096 1.4,16.61096 6.01,3.07 10.30093,-3.63 12.16093,-8.45 2.32,-8.44 0.73938,-17.69 -3.79062,-25.1 -2.8,-6.24 4.37969,0.50936 5.67969,2.45936 9.65,11.91 4.73093,27.24936 2.61093,40.75936 -3.01,8.88 8.97031,6.76064 14.67031,7.99064 0.22,-3.66 -1.71,-6.90032 -2.9,-10.22032 5.77,0.75 6.23969,7.07096 9.17969,10.91096 4.78,1.37 9.80031,1.47936 14.62031,2.65936 1.06,-0.89 2.28938,-1.80936 2.05938,-3.35936 0.04,-11.04 0.73938,-22.25096 -1.89062,-33.06096 -0.5,-7.69 -2.00969,-19.01904 7.72031,-21.08904 -0.77,3.77 -1.23031,7.57 -0.17031,11.4 0.52,5.17 3.48093,9.57904 6.16093,13.88904 6.25,9.99 -1.19,21.86064 -0.75,32.59064 8.25,1.81 16.76969,1.88936 25.12969,3.00936 -1.39,-5.3 -3.92969,-10.19968 -5.52969,-15.42968 0.15,-5.55 0.47907,-11.03936 0.0891,-16.55936 0.8,-3.88 2.83093,-7.65064 6.16093,-9.89064 -0.21,4.89 -2.63969,10.73968 0.27031,14.97968 2.9,4.49 8.43876,-0.17 10.56876,-3.05 6.92,-9.79 2.2,-22.98 -2.95,-32.6 -4.92,-1.08 -10.05907,-1.24032 -14.63907,-3.52032 -0.52,-1.5 0.88,-2.07968 1.9,-2.72968 -9.98,-6.21 -9.62093,-20.41937 -3.16093,-29.10937 -12.31,0.67 -15.40969,16.81031 -13.37969,26.57033 1.11,11.21 16.00031,18.62904 10.47031,30.68904 -3.81,-4.95 -8.96031,-8.39032 -13.97031,-11.97032 -2.24,-3.25 -3.18907,-7.14872 -5.08907,-10.51872 -8.7,-0.09 -17.20062,7.19968 -15.79062,16.42968 -0.92,3.62 2.16938,11.70968 -4.14062,11.22968 -4.22,-3.43 -4.26969,-9.05968 -3.82969,-14.02968 2.72,-9.14 0.53031,-23.59064 -10.22969,-26.34064 1.33,6.74 3.51938,13.32064 3.30938,20.29064 -1.83,3.45 -6.39876,5.47032 -8.51876,1.07032 -6.12,-12.14 0.93,-25.97126 5.2,-37.58126 -8.83,-5.76 -18.35124,-10.42969 -26.78124,-16.77969 -1.15,-1.13 -2.80907,-0.79 -4.23907,-0.85 z M 636.00625,672.95 c -0.66375,-0.008 -1.32594,-0.006 -1.98594,0.009 -9.25,4.51 -10.99093,15.49062 -10.16093,24.74062 3.84,0.31 7.64031,-0.27 11.27031,-1.55 -2.8,-7.64 -3.17969,-16.96 2.87031,-23.15 -0.665,-0.025 -1.33,-0.0425 -1.99375,-0.05 z m -90.14687,0.85938 c -13.58,0.92 -13.98876,18.21124 -12.96876,28.13126 -8.4,0.1 -16.80031,0.32904 -25.17031,-0.21096 -2.96,0.1 -5.82062,0.38064 -8.74062,0.49064 16.31,1.32 32.89093,0.91968 49.16093,-0.27032 -8.33,-6.87 -7.56124,-19.57062 -2.28124,-28.14062 z m 36.1,20.12031 c 0.54,2.58999 1.30031,5.12999 2.27031,7.59999 2,0.02 3.99031,-0.16936 5.97031,-0.50936 -2.47,-2.67 -4.77062,-5.72063 -8.24062,-7.09063 z m -90.91876,1.94062 c 0.22,2.33001 0.7,4.62001 1,6.95001 2.08,-0.04 4.15938,-0.26096 6.20938,-0.66096 -0.98,-3.31 -3.84938,-5.67904 -7.20938,-6.28905 z m -12.30156,14.68593 c -1.70837,0.0478 -3.34531,0.42504 -4.82968,1.44376 3.16,3.31 5.97124,6.99 7.83124,11.2 5.27,16.76 -2.69093,33.70032 -2.76093,50.67032 5,-0.44 10.53093,0.82936 15.36093,0.30936 1.93,-6.52 1.08938,-14.13904 -2.44062,-20.23904 8.46,3.29 10.42,12.8 10.35,20.85 4.54,0.2 9.03969,0.8 13.57969,1.15 1.99,-2.77 1.72093,-6.48 2.41093,-9.7 1.06,-7.13 1.2,-14.42064 0.1,-21.54064 -0.46,-2.91 -0.94031,-5.66032 -1.37031,-8.52032 -0.4,-7.03 -2.98031,-14.37968 0.0797,-21.12968 -2.02,-0.13 -4.01938,-0.38032 -6.00938,-0.72032 -2.24,6.37 -2.31062,13.21 -1.84062,19.9 -1.07,1.24 -3.03031,2.70064 -4.47031,1.09064 -6.44,-5.36 -2.5,-14.92064 -2.6,-22.04064 -2.6,0.07 -5.26031,-0.21032 -7.82031,-0.27032 -0.32,4.03 -2.87907,7.29 -7.23907,6 -2.24901,-2.3336 -4.20379,-6.55184 -2.025,-7.75 -2.1171,-0.35128 -4.26224,-0.76024 -6.30625,-0.70312 z m 6.30625,0.70312 c 1.77572,0.29464 3.53168,0.5504 5.18438,0.44064 -2.64304,-0.91736 -4.27276,-0.94192 -5.18438,-0.44064 z m 37.81407,3.93128 c -2.51,12.99 12.35062,20.85872 9.19062,33.81872 -0.71,8.93 -4.49938,18.69096 -1.05938,27.31096 0.74,1.38 2.64876,0.80032 3.91876,0.72032 l 1.76093,0 c 6.45,-1.34 12.93969,-0.29096 19.42969,-0.061 -1.47,-9.35 -7.50938,-17.38936 -8.05938,-27.00936 0.67,-6.16 -0.26124,-17.31 6.86876,-20.1 -0.02,5.23 -3.51969,12.31032 1.37031,15.97032 9.43,2.25 14.29093,-10.87032 12.21093,-18.42032 -0.2499,-3.03224 -2.97894,-8.73864 0.0516,-9.7172 -8.43815,-0.26656 -17.10788,-1.92424 -25.39218,0.2172 1.54,3.71 3.97031,15.54032 -2.12969,10.02032 -0.24,-0.25 -0.71062,-0.76096 -0.94062,-1.01096 -3.94,-3.81 -8.98031,-6.36968 -12.27031,-10.87968 -1.64,-0.37 -3.28,-0.69936 -4.95,-0.85936 z m 45.6828,2.51248 c 0.86142,0.0272 1.72224,0.0449 2.57813,0.0375 -1.13709,-0.24376 -1.97068,-0.23368 -2.57813,-0.0375 z m 28.74532,-1.61872 c -1.17094,-0.0561 -2.30032,0.12 -3.35781,0.77496 11.26,-3.36 6.01093,9.68 7.11093,16.1 -1.07,1.26 -2.74,3.09096 -4.3,1.36096 -5.36,-3.76 -3.56093,-11.02 -4.06093,-16.55 -6.53,0.75 -14.07031,-1.66968 -19.77031,2.37032 6.38,18.55 -3.41876,37.80872 -0.86876,56.76872 4.22,0.36 8.45876,0.08 12.71876,0 5.32,-7.14 2.88093,-16.68872 -0.58907,-24.16872 5.95,2.09 8.85969,8.20872 10.17969,13.96872 -0.17,3.34 -0.49062,6.85096 -0.29062,10.26096 4.65,-0.12 9.56124,0.85032 14.08124,-0.72968 0.64,-3.02 1.68,-5.95 2.1,-9 0.88,-7.77 1.58,-15.81128 0.15,-23.53128 -0.45,-2.54 -0.97093,-5.05904 -1.41093,-7.58904 -0.18,-6.57 -3.52,-13.54096 -0.85,-19.91096 -3.44251,2.30248 -7.32938,0.0433 -10.84219,-0.12496 z"
     id="path4358"
     style="fill:#691717;fill-opacity:1"
     inkscape:connector-curvature="0" />
</svg>
